<?xml version="1.0" encoding="utf-8"?>
<!-- Generator: Adobe Illustrator 28.0.0, SVG Export Plug-In . SVG Version: 6.00 Build 0)  -->
<svg version="1.1" xmlns="http://www.w3.org/2000/svg" xmlns:xlink="http://www.w3.org/1999/xlink" x="0px" y="0px"
	 viewBox="0 0 800 800" style="enable-background:new 0 0 800 800;" xml:space="preserve">
<style type="text/css">
	.st0{display:none;}
	.st1{display:inline;fill:#CCECEB;}
	.st2{display:inline;}
	.st3{fill:#3C3C3B;}
	.st4{fill-rule:evenodd;clip-rule:evenodd;fill:#3C3C3B;}
	.st5{display:inline;fill:#3C3C3B;}
</style>
<g id="Background" class="st0">
	<rect class="st1" width="800" height="800"/>
	<g class="st2">
		<g>
			<path class="st3" d="M387.17,772.71h0.68v-0.87c0-0.9,0.11-1.62,0.34-2.14c0.22-0.53,0.62-0.91,1.16-1.16
				c0.54-0.24,1.29-0.36,2.23-0.36c1.68,0,2.51,0.4,2.51,1.23c0,0.26-0.09,0.49-0.27,0.68c-0.17,0.19-0.38,0.28-0.62,0.28
				c-0.11,0-0.31-0.02-0.58-0.06c-0.26-0.04-0.5-0.07-0.69-0.07c-0.52,0-0.85,0.15-1,0.46c-0.14,0.3-0.22,0.74-0.22,1.31v0.69h0.7
				c1.1,0,1.64,0.32,1.64,0.99c0,0.46-0.14,0.76-0.43,0.89c-0.29,0.12-0.69,0.19-1.21,0.19h-0.7v7.61c0,0.57-0.13,1-0.41,1.29
				c-0.27,0.3-0.61,0.45-1.04,0.45c-0.41,0-0.74-0.15-1.02-0.45c-0.27-0.29-0.4-0.72-0.4-1.29v-7.61h-0.79
				c-0.43,0-0.76-0.09-0.99-0.29c-0.23-0.19-0.35-0.44-0.35-0.75C385.73,773.05,386.21,772.71,387.17,772.71"/>
			<path class="st3" d="M396.57,779.99v2.4c0,0.58-0.15,1.02-0.42,1.31c-0.27,0.29-0.62,0.44-1.04,0.44c-0.42,0-0.76-0.14-1.02-0.45
				c-0.26-0.29-0.4-0.72-0.4-1.3v-7.99c0-1.29,0.46-1.94,1.39-1.94c0.48,0,0.82,0.15,1.03,0.45c0.21,0.3,0.32,0.75,0.35,1.34
				c0.34-0.59,0.69-1.04,1.05-1.34c0.37-0.3,0.84-0.45,1.45-0.45c0.61,0,1.19,0.15,1.76,0.45c0.57,0.3,0.85,0.71,0.85,1.2
				c0,0.35-0.12,0.64-0.36,0.87c-0.25,0.23-0.51,0.34-0.78,0.34c-0.11,0-0.37-0.07-0.77-0.2c-0.4-0.12-0.76-0.19-1.07-0.19
				c-0.42,0-0.77,0.11-1.03,0.33c-0.27,0.22-0.48,0.55-0.63,0.98c-0.14,0.44-0.24,0.95-0.3,1.55
				C396.59,778.4,396.57,779.13,396.57,779.99"/>
			<path class="st3" d="M409.77,779h-5.62c0.01,0.65,0.14,1.23,0.39,1.73c0.26,0.49,0.6,0.87,1.02,1.12
				c0.43,0.25,0.89,0.38,1.4,0.38c0.35,0,0.66-0.04,0.94-0.12c0.28-0.08,0.56-0.21,0.82-0.38c0.27-0.17,0.51-0.35,0.73-0.55
				c0.22-0.2,0.52-0.46,0.87-0.8c0.15-0.12,0.36-0.19,0.63-0.19c0.3,0,0.53,0.08,0.72,0.25c0.18,0.16,0.27,0.38,0.27,0.68
				c0,0.26-0.1,0.56-0.3,0.91c-0.21,0.35-0.51,0.68-0.93,1c-0.41,0.32-0.93,0.59-1.55,0.79c-0.62,0.21-1.34,0.31-2.14,0.31
				c-1.85,0-3.28-0.52-4.3-1.58c-1.02-1.06-1.54-2.48-1.54-4.28c0-0.85,0.13-1.64,0.38-2.37c0.25-0.73,0.62-1.35,1.11-1.87
				c0.48-0.52,1.07-0.91,1.79-1.19c0.71-0.28,1.49-0.41,2.36-0.41c1.12,0,2.08,0.23,2.89,0.71c0.8,0.47,1.41,1.08,1.8,1.83
				c0.4,0.75,0.6,1.52,0.6,2.3c0,0.71-0.21,1.18-0.62,1.4C411.1,778.9,410.52,779,409.77,779 M404.15,777.37h5.21
				c-0.07-0.98-0.33-1.71-0.79-2.2c-0.46-0.48-1.06-0.73-1.82-0.73c-0.71,0-1.3,0.24-1.76,0.74
				C404.53,775.68,404.25,776.41,404.15,777.37"/>
			<path class="st3" d="M421.71,779h-5.62c0.01,0.65,0.14,1.23,0.39,1.73c0.25,0.49,0.6,0.87,1.02,1.12
				c0.42,0.25,0.89,0.38,1.41,0.38c0.34,0,0.66-0.04,0.94-0.12c0.29-0.08,0.56-0.21,0.83-0.38c0.27-0.17,0.51-0.35,0.74-0.55
				c0.22-0.2,0.52-0.46,0.87-0.8c0.15-0.12,0.36-0.19,0.63-0.19c0.3,0,0.53,0.08,0.72,0.25c0.18,0.16,0.27,0.38,0.27,0.68
				c0,0.26-0.1,0.56-0.3,0.91c-0.2,0.35-0.5,0.68-0.92,1c-0.41,0.32-0.93,0.59-1.54,0.79c-0.62,0.21-1.34,0.31-2.14,0.31
				c-1.84,0-3.28-0.52-4.3-1.58c-1.02-1.06-1.54-2.48-1.54-4.28c0-0.85,0.13-1.64,0.38-2.37c0.25-0.73,0.62-1.35,1.1-1.87
				c0.48-0.52,1.08-0.91,1.79-1.19c0.71-0.28,1.49-0.41,2.36-0.41c1.12,0,2.08,0.23,2.89,0.71c0.8,0.47,1.4,1.08,1.79,1.83
				c0.4,0.75,0.6,1.52,0.6,2.3c0,0.71-0.21,1.18-0.62,1.4C423.04,778.9,422.46,779,421.71,779 M416.09,777.37h5.2
				c-0.07-0.98-0.34-1.71-0.79-2.2c-0.46-0.48-1.06-0.73-1.82-0.73c-0.72,0-1.3,0.24-1.76,0.74
				C416.47,775.68,416.19,776.41,416.09,777.37"/>
			<path class="st3" d="M428,774.07v0.34c0.54-0.66,1.1-1.15,1.69-1.47c0.57-0.31,1.23-0.47,1.97-0.47c0.88,0,1.7,0.23,2.44,0.69
				c0.74,0.46,1.33,1.12,1.76,2c0.43,0.88,0.65,1.91,0.65,3.12c0,0.88-0.12,1.69-0.37,2.44c-0.25,0.74-0.6,1.36-1.03,1.86
				c-0.44,0.5-0.95,0.89-1.54,1.16c-0.6,0.27-1.23,0.4-1.91,0.4c-0.82,0-1.51-0.16-2.06-0.5c-0.56-0.32-1.09-0.81-1.6-1.45v4.31
				c0,1.26-0.46,1.89-1.38,1.89c-0.54,0-0.89-0.16-1.08-0.48c-0.17-0.33-0.26-0.8-0.26-1.43v-12.39c0-0.55,0.12-0.96,0.35-1.22
				c0.24-0.27,0.57-0.41,0.98-0.41c0.41,0,0.74,0.14,0.99,0.42C427.87,773.15,428,773.55,428,774.07 M433.63,778.24
				c0-0.76-0.12-1.41-0.35-1.95c-0.23-0.55-0.55-0.96-0.96-1.25c-0.4-0.29-0.86-0.44-1.36-0.44c-0.79,0-1.46,0.31-2,0.93
				c-0.54,0.62-0.82,1.54-0.82,2.76c0,1.14,0.27,2.03,0.81,2.67c0.54,0.63,1.21,0.95,2.01,0.95c0.48,0,0.92-0.14,1.33-0.41
				c0.41-0.28,0.73-0.69,0.98-1.25C433.5,779.7,433.63,779.03,433.63,778.24"/>
			<path class="st3" d="M439.4,771.12c-0.4,0-0.74-0.12-1.02-0.36c-0.29-0.25-0.43-0.6-0.43-1.04c0-0.41,0.15-0.74,0.44-1
				c0.29-0.26,0.63-0.4,1.01-0.4c0.38,0,0.7,0.12,0.99,0.36c0.29,0.24,0.43,0.59,0.43,1.04c0,0.44-0.14,0.79-0.42,1.04
				C440.12,770.99,439.79,771.12,439.4,771.12 M440.82,774.09v8.3c0,0.57-0.14,1.01-0.41,1.3c-0.28,0.3-0.62,0.45-1.04,0.45
				c-0.42,0-0.76-0.15-1.03-0.45c-0.26-0.31-0.39-0.73-0.39-1.29v-8.22c0-0.56,0.14-0.99,0.39-1.27c0.27-0.3,0.6-0.44,1.03-0.44
				c0.42,0,0.77,0.14,1.04,0.44C440.69,773.18,440.82,773.58,440.82,774.09"/>
			<path class="st3" d="M450.08,782.82l-2.53-4.17l-1.56,1.47v2.29c0,0.55-0.14,0.97-0.44,1.27c-0.28,0.3-0.62,0.45-1,0.45
				c-0.44,0-0.79-0.14-1.04-0.45c-0.25-0.29-0.38-0.72-0.38-1.3v-12.25c0-0.63,0.12-1.12,0.37-1.45c0.25-0.34,0.6-0.5,1.05-0.5
				c0.44,0,0.79,0.15,1.05,0.46c0.26,0.3,0.39,0.74,0.39,1.33v6.97l3.23-3.39c0.4-0.42,0.7-0.71,0.92-0.86
				c0.21-0.15,0.46-0.23,0.76-0.23c0.36,0,0.66,0.12,0.9,0.34c0.23,0.23,0.35,0.51,0.35,0.86c0,0.41-0.39,0.98-1.17,1.68l-1.53,1.39
				l2.94,4.63c0.21,0.34,0.38,0.6,0.47,0.78c0.09,0.18,0.14,0.35,0.14,0.51c0,0.46-0.12,0.81-0.38,1.08
				c-0.25,0.26-0.58,0.39-0.98,0.39c-0.35,0-0.62-0.09-0.81-0.29C450.66,783.66,450.4,783.32,450.08,782.82"/>
			<path class="st3" d="M456.32,784.13c-0.44,0-0.81-0.14-1.12-0.42c-0.31-0.28-0.47-0.67-0.47-1.18c0-0.43,0.15-0.79,0.46-1.1
				c0.3-0.31,0.67-0.46,1.11-0.46c0.44,0,0.82,0.15,1.13,0.45c0.31,0.3,0.47,0.68,0.47,1.11c0,0.5-0.16,0.89-0.47,1.17
				C457.11,784,456.74,784.13,456.32,784.13"/>
			<path class="st3" d="M470.6,780.58c0,0.36-0.11,0.74-0.32,1.15c-0.21,0.41-0.54,0.79-0.98,1.17c-0.44,0.37-0.99,0.66-1.65,0.89
				c-0.67,0.22-1.42,0.34-2.25,0.34c-1.78,0-3.16-0.52-4.16-1.55c-0.99-1.04-1.49-2.42-1.49-4.16c0-1.19,0.23-2.22,0.69-3.13
				c0.45-0.9,1.11-1.6,1.97-2.1c0.86-0.5,1.9-0.74,3.09-0.74c0.74,0,1.43,0.11,2.05,0.32c0.62,0.21,1.14,0.5,1.58,0.84
				c0.43,0.35,0.76,0.71,0.98,1.1c0.23,0.39,0.34,0.75,0.34,1.1c0,0.34-0.12,0.63-0.38,0.87c-0.26,0.24-0.57,0.36-0.93,0.36
				c-0.24,0-0.44-0.07-0.6-0.19c-0.16-0.12-0.34-0.32-0.53-0.59c-0.35-0.54-0.71-0.93-1.1-1.2c-0.38-0.27-0.87-0.4-1.46-0.4
				c-0.84,0-1.53,0.33-2.05,1c-0.52,0.66-0.78,1.57-0.78,2.71c0,0.54,0.07,1.04,0.2,1.49c0.13,0.45,0.32,0.84,0.58,1.16
				c0.25,0.32,0.56,0.56,0.91,0.72c0.36,0.17,0.75,0.25,1.18,0.25c0.58,0,1.07-0.14,1.48-0.4c0.42-0.27,0.78-0.67,1.09-1.22
				c0.17-0.32,0.36-0.57,0.56-0.75c0.2-0.18,0.45-0.28,0.75-0.28c0.35,0,0.64,0.13,0.87,0.4
				C470.48,779.99,470.6,780.28,470.6,780.58"/>
			<path class="st3" d="M482.99,778.3c0,0.86-0.14,1.64-0.39,2.37c-0.28,0.72-0.66,1.35-1.16,1.86c-0.5,0.52-1.11,0.92-1.8,1.2
				c-0.71,0.28-1.5,0.42-2.37,0.42c-0.87,0-1.65-0.14-2.35-0.42c-0.69-0.28-1.3-0.68-1.8-1.2c-0.51-0.53-0.89-1.14-1.16-1.85
				c-0.25-0.71-0.39-1.5-0.39-2.36c0-0.87,0.14-1.67,0.4-2.39c0.27-0.72,0.65-1.34,1.15-1.85c0.5-0.51,1.1-0.91,1.81-1.19
				c0.71-0.28,1.49-0.42,2.35-0.42c0.87,0,1.66,0.14,2.37,0.42c0.7,0.28,1.31,0.68,1.82,1.19c0.51,0.53,0.89,1.14,1.15,1.86
				C482.85,776.64,482.99,777.44,482.99,778.3 M480.1,778.3c0-1.17-0.26-2.08-0.77-2.73c-0.51-0.66-1.21-0.98-2.08-0.98
				c-0.56,0-1.05,0.14-1.48,0.44c-0.43,0.29-0.75,0.72-0.99,1.29c-0.23,0.57-0.35,1.23-0.35,1.99c0,0.75,0.11,1.4,0.34,1.96
				c0.23,0.56,0.55,0.99,0.98,1.29c0.43,0.3,0.92,0.45,1.5,0.45c0.87,0,1.56-0.33,2.08-0.98C479.84,780.36,480.1,779.46,480.1,778.3
				"/>
			<path class="st3" d="M493.94,778.51v3.82c0,0.6-0.13,1.05-0.41,1.35c-0.28,0.3-0.63,0.45-1.08,0.45c-0.43,0-0.79-0.15-1.05-0.45
				c-0.27-0.31-0.41-0.75-0.41-1.35v-4.58c0-0.72-0.02-1.29-0.07-1.69c-0.05-0.39-0.19-0.72-0.4-0.98
				c-0.22-0.26-0.56-0.38-1.03-0.38c-0.94,0-1.56,0.32-1.86,0.97c-0.29,0.64-0.45,1.57-0.45,2.78v3.88c0,0.59-0.14,1.04-0.4,1.35
				c-0.27,0.31-0.63,0.46-1.07,0.46c-0.44,0-0.79-0.15-1.07-0.46c-0.28-0.31-0.42-0.76-0.42-1.35v-8.22c0-0.54,0.13-0.95,0.37-1.23
				c0.26-0.28,0.58-0.42,0.99-0.42c0.39,0,0.72,0.14,0.99,0.4c0.26,0.26,0.39,0.62,0.39,1.09v0.27c0.5-0.59,1.04-1.03,1.6-1.31
				c0.57-0.29,1.2-0.43,1.9-0.43c0.72,0,1.34,0.15,1.86,0.43c0.52,0.29,0.95,0.73,1.28,1.3c0.49-0.58,1.01-1.03,1.56-1.31
				c0.55-0.28,1.17-0.43,1.84-0.43c0.78,0,1.46,0.16,2.03,0.47c0.56,0.3,0.99,0.75,1.27,1.32c0.25,0.52,0.37,1.34,0.37,2.46v5.61
				c0,0.6-0.14,1.05-0.41,1.35c-0.27,0.3-0.63,0.45-1.08,0.45c-0.44,0-0.79-0.15-1.07-0.46c-0.28-0.31-0.42-0.76-0.42-1.35v-4.83
				c0-0.62-0.03-1.11-0.08-1.48c-0.05-0.37-0.19-0.68-0.42-0.94c-0.23-0.25-0.59-0.38-1.05-0.38c-0.38,0-0.74,0.12-1.08,0.34
				c-0.34,0.22-0.61,0.53-0.8,0.9C494.05,776.43,493.94,777.28,493.94,778.51"/>
			<path class="st4" d="M367.29,785.14c0,0-1.57-0.25-3.1-1.92c-1.54-1.69-1.8-3.47-1.8-3.47s1.95,0.46,3.36,0.62
				c2.47,0.28,4.7,0.12,5.75,0.01c2.27-0.25,3.48-0.67,3.97-0.79c2.9-0.7,5.69-2.58,5.69-2.58s0.35,2.18-1.29,4.6
				c-0.64,0.94-1.92,2.03-3.38,2.78C371.47,786.53,367.29,785.14,367.29,785.14"/>
			<path class="st4" d="M379.16,772.74c-0.54-0.65-2.34-3.74-5.98-4.19c-0.93-0.11-5.85,0.08-8.81,2.81
				c-0.29,0.28-1.79,1.59-2.29,4.05c-0.39,1.89,0.25,4.03,0.25,4.03s3.28,0.68,5.74,0.62c3.91-0.1,5.88-0.44,7.93-1.06
				c3.01-0.91,5.15-2.44,5.15-2.44S379.7,773.4,379.16,772.74 M367.87,777.44c-1.65,0.1-3.08-1.14-3.18-2.79
				c-0.1-1.64,1.16-3.07,2.81-3.17c1.66-0.11,3.08,1.14,3.18,2.78C370.78,775.91,369.52,777.33,367.87,777.44 M376.32,775.31
				c-1.04,0.06-1.94-0.72-2-1.76c-0.06-1.03,0.73-1.93,1.77-1.99c1.04-0.07,1.94,0.72,2,1.75
				C378.16,774.35,377.36,775.24,376.32,775.31"/>
			<path class="st4" d="M377.74,770.61l0.95-1.14c0,0,1.31,0.65,2.16,1.86c0.84,1.21,1.39,2.32,1.39,2.32l-1.57,0.96
				c0,0-0.49-1.17-1.22-2.11C378.73,771.56,377.74,770.61,377.74,770.61"/>
			<path class="st4" d="M380.73,771.4c0.25-0.15,0.66-0.17,0.63-0.52c-0.02-0.35-0.25-1.03,0.43-1.27c0.69-0.23,0.3,0.21,0.06,0.51
				c-0.24,0.3-0.16,0.49-0.13,0.93c0.03,0.44-0.28,0.59-0.75,0.8C380.51,772.08,380.48,771.55,380.73,771.4"/>
			<path class="st4" d="M363.29,772.1c0,0-1.1,1.28-1.38,2.43c-0.28,1.16-0.22,2.55-0.22,2.55l-1.63-0.56c0,0-0.09-1.6,0.65-2.9
				c0.82-1.44,1.88-2.08,1.88-2.08L363.29,772.1z"/>
			<path class="st4" d="M360.89,773.56c-0.26-0.17-0.29-0.58-0.5-0.85c-0.21-0.28-0.26-0.11-0.74-0.11c-0.48,0-0.49-0.23-0.63-0.34
				c-0.14-0.12-0.2,0.36-0.2,0.36s0.09,0.41,0.6,0.44c0.51,0.03,0.5-0.22,0.72,0.24c0.22,0.46,0.66,0.81,0.66,0.81
				S361.16,773.73,360.89,773.56"/>
			<path class="st4" d="M369.54,767.49c2.67-0.67,4.35,0.1,4.35,0.1l-0.14,0.77c0,0-1.95-0.13-3.5,0.1
				c-1.55,0.22-2.25,0.71-2.25,0.71l-0.34-0.77C367.65,768.4,368.38,767.78,369.54,767.49"/>
			<polygon class="st4" points="370.34,766.39 370.72,766.25 371.21,767.58 370.84,767.73 			"/>
			<path class="st4" d="M382.12,768.87c0.38-0.02,0.7,0.27,0.72,0.64c0.03,0.38-0.26,0.7-0.64,0.72c-0.38,0.03-0.7-0.26-0.72-0.63
				C381.45,769.22,381.74,768.89,382.12,768.87"/>
			<path class="st4" d="M358.63,771.45c0.38-0.02,0.7,0.26,0.73,0.64c0.02,0.37-0.26,0.69-0.64,0.72c-0.38,0.03-0.7-0.26-0.72-0.63
				C357.97,771.8,358.26,771.48,358.63,771.45"/>
			<path class="st4" d="M370.67,764.69c0.6-0.04,1.12,0.41,1.16,1.02c0.04,0.59-0.42,1.11-1.02,1.15c-0.6,0.04-1.12-0.41-1.15-1.01
				C369.6,765.24,370.06,764.72,370.67,764.69"/>
			<path class="st3" d="M285.24,782.55c0,0.67-0.42,1.12-1.01,1.12c-0.55,0-0.88-0.3-1-0.84c-0.38,0.62-1.15,0.92-1.84,0.92
				c-2.02,0-3.3-1.87-3.3-3.77c0-1.96,1.07-3.98,3.23-3.98c0.7,0,1.38,0.24,1.91,0.7v-2.73c0-0.67,0.42-1.11,1-1.11
				c0.58,0,1.01,0.44,1.01,1.11V782.55z M281.66,777.85c-1.04,0-1.56,1.09-1.56,2.04c0,0.94,0.52,2.03,1.56,2.03
				c1.1,0,1.57-1.12,1.57-2.1C283.23,778.85,282.73,777.85,281.66,777.85"/>
			<path class="st3" d="M288,780.55c0.14,0.99,0.96,1.45,1.9,1.45c1.03,0,1.74-0.8,2.27-0.8c0.43,0,0.82,0.43,0.82,0.86
				c0,0.86-1.78,1.69-3.27,1.69c-2.26,0-3.76-1.64-3.76-3.86c0-2.03,1.48-3.89,3.59-3.89c2.17,0,3.61,1.98,3.61,3.65
				c0,0.6-0.27,0.89-0.88,0.89H288z M291.15,779.21c-0.11-0.88-0.67-1.53-1.6-1.53c-0.89,0-1.49,0.68-1.59,1.53H291.15z"/>
			<path class="st3" d="M298.09,778.35c-0.38,0-1.14-0.59-1.8-0.59c-0.36,0-0.68,0.17-0.68,0.56c0,0.93,3.48,0.79,3.48,3.08
				c0,1.33-1.13,2.35-2.86,2.35c-1.13,0-2.8-0.64-2.8-1.54c0-0.3,0.31-0.89,0.86-0.89c0.78,0,1.13,0.68,2.07,0.68
				c0.61,0,0.8-0.2,0.8-0.57c0-0.92-3.48-0.78-3.48-3.08c0-1.39,1.13-2.34,2.72-2.34c0.99,0,2.51,0.46,2.51,1.45
				C298.91,777.91,298.56,778.35,298.09,778.35"/>
			<path class="st3" d="M301.91,774.18c0,0.63-0.5,1.16-1.13,1.16c-0.6,0-1.13-0.54-1.13-1.16c0-0.57,0.53-1.1,1.13-1.1
				C301.38,773.08,301.91,773.59,301.91,774.18 M299.77,777.21c0-0.67,0.42-1.12,1-1.12c0.58,0,1,0.45,1,1.12v5.35
				c0,0.67-0.42,1.12-1,1.12c-0.59,0-1-0.44-1-1.12V777.21z"/>
			<path class="st3" d="M309.75,783c0,2.41-1.58,3.63-3.86,3.63c-0.82,0-3.16-0.41-3.16-1.51c0-0.37,0.42-0.88,0.81-0.88
				c0.64,0,1.35,0.62,2.51,0.62c0.98,0,1.7-0.56,1.7-1.59v-0.47h-0.03c-0.42,0.61-1.1,0.94-2.02,0.94c-2.1,0-3.1-1.85-3.1-3.84
				c0-2.02,1.28-3.9,3.3-3.9c0.69,0,1.46,0.31,1.84,0.92c0.13-0.52,0.45-0.83,1-0.83c0.58,0,1,0.45,1,1.12V783z M306.17,777.85
				c-1.04,0-1.56,1.08-1.56,2.02c0,1.07,0.51,2.05,1.56,2.05c1.07,0,1.58-1.01,1.58-1.98C307.75,778.96,307.27,777.85,306.17,777.85
				"/>
			<path class="st3" d="M310.89,777.21c0-0.67,0.42-1.12,1-1.12c0.51,0,0.85,0.28,0.92,0.75c0.39-0.55,0.99-0.83,1.94-0.83
				c1.57,0,2.74,1.01,2.74,2.7v3.85c0,0.67-0.41,1.12-1,1.12c-0.58,0-1.01-0.44-1.01-1.12v-3.49c0-0.94-0.58-1.38-1.31-1.38
				c-0.82,0-1.28,0.6-1.28,1.38v3.49c0,0.67-0.42,1.12-1,1.12c-0.59,0-1-0.44-1-1.12V777.21z"/>
			<path class="st3" d="M320.26,780.55c0.14,0.99,0.96,1.45,1.9,1.45c1.03,0,1.74-0.8,2.27-0.8c0.43,0,0.83,0.43,0.83,0.86
				c0,0.86-1.79,1.69-3.28,1.69c-2.26,0-3.76-1.64-3.76-3.86c0-2.03,1.48-3.89,3.59-3.89c2.17,0,3.61,1.98,3.61,3.65
				c0,0.6-0.26,0.89-0.88,0.89H320.26z M323.41,779.21c-0.11-0.88-0.67-1.53-1.6-1.53c-0.89,0-1.49,0.68-1.59,1.53H323.41z"/>
			<path class="st3" d="M332.98,782.55c0,0.67-0.42,1.12-1.01,1.12c-0.55,0-0.87-0.3-1-0.84c-0.38,0.62-1.16,0.92-1.84,0.92
				c-2.02,0-3.3-1.87-3.3-3.77c0-1.96,1.07-3.98,3.23-3.98c0.69,0,1.38,0.24,1.91,0.7v-2.73c0-0.67,0.42-1.11,1-1.11
				c0.59,0,1.01,0.44,1.01,1.11V782.55z M329.4,777.85c-1.05,0-1.56,1.09-1.56,2.04c0,0.94,0.51,2.03,1.56,2.03
				c1.1,0,1.57-1.12,1.57-2.1C330.97,778.85,330.47,777.85,329.4,777.85"/>
			<path class="st3" d="M337.85,773.97c0-0.67,0.42-1.11,1.01-1.11c0.59,0,1,0.44,1,1.11v2.73c0.53-0.46,1.21-0.7,1.91-0.7
				c2.16,0,3.23,2.02,3.23,3.98c0,1.9-1.28,3.77-3.3,3.77c-0.68,0-1.46-0.3-1.84-0.92c-0.13,0.54-0.45,0.84-1,0.84
				c-0.59,0-1.01-0.44-1.01-1.12V773.97z M341.44,781.92c1.04,0,1.56-1.09,1.56-2.03c0-0.95-0.51-2.04-1.56-2.04
				c-1.07,0-1.57,1-1.57,1.97C339.86,780.8,340.34,781.92,341.44,781.92"/>
			<path class="st3" d="M345.35,777.46c-0.06-0.15-0.1-0.3-0.1-0.51c0-0.51,0.53-0.87,0.95-0.87c0.49,0,0.83,0.27,1,0.71l1.38,3.78
				l1.48-3.78c0.17-0.44,0.51-0.71,1-0.71c0.42,0,0.95,0.36,0.95,0.87c0,0.21-0.03,0.36-0.09,0.51l-3.36,8.37
				c-0.17,0.41-0.47,0.8-0.95,0.8c-0.68,0-1.04-0.44-1.04-0.86c0-0.2,0.06-0.41,0.12-0.59l0.88-2.18L345.35,777.46z"/>
		</g>
	</g>
</g>
<g id="Objects">
	<g class="st0">
		<path class="st5" d="M182.24,438.2c-4.79,3.46-8.93,4.51-13.36,0.04c-3.19-3.21-5.33-7.32-8.36-10.68
			c-2.95-3.29-7.07-4.36-11.13-3.82c0.83-1.26,1.35-2.76,1.47-4.42c0.31-4.2-3.41-7.27-7.18-8.05c-3.58-0.74-8.93,0.86-9.7,4.95
			c-0.2,1.09,1.1,2.06,1.97,1.14c1.96-2.07,3.27-3.5,6.35-3.42c2.56,0.07,5.01,1.68,5.71,4.17c1.86,6.61-10.12,10.33-12.06,3.84
			c-0.32-1.08-1.85-0.62-1.67,0.46c0.32,1.85,1.35,3.19,2.73,4.06c-9.69,1.91-15.41,18.5-26.2,9.28c-1.04-0.89-2.62-0.32-2.68,1.11
			c-0.23,6.06,1.28,11.95,6.3,15.71c4.2,3.15,10.1,3.13,14.95,1.81c7.41-2.01,12.86-7.56,14.76-14.25
			c2.92,6.41,8.27,11.41,15.88,12.86c9.35,1.78,21.85-3.25,24.74-12.86C185.18,438.78,183.5,437.3,182.24,438.2z M123.81,445.29
			c-0.14-0.08-0.28-0.16-0.42-0.24c0.53-0.21,1.06-0.43,1.59-0.65C124.59,444.69,124.2,444.98,123.81,445.29z M172.01,445.06
			c-0.05-0.25-0.17-0.5-0.37-0.7c0.28,0.12,0.57,0.23,0.86,0.33c0.02,0,0.03,0.01,0.05,0.01c0,0.03,0.01,0.05,0.01,0.08
			C172.37,444.87,172.19,444.97,172.01,445.06z"/>
		<path class="st5" d="M223.35,346.84c2.66-8.89,0.41-20.12-5.09-27c-9.24-11.56-29.33-15.93-40.57-5.84
			c0.32-12.5-5.16-23.81-15.62-31.6c-12.39-9.24-29.42-10.72-43.81-5.94c-12.68,4.22-23.96,15.68-31.09,26.59
			c-6.46,9.88-9.11,21.99-3.16,31.79c-12.02-3.05-24.72,0.44-33.15,10.31c-8.68,10.16-10.05,28.54-0.12,38.54
			c7.12,7.17,20.48,8.94,30.05,8.59c4.16-0.15,9.08-1.33,12.06-3.85c3.33,9.14,2.78,18.5,1.59,27.92c-3.24-0.83-6.71-0.77-9.36,1.54
			c-2.47,2.15-2.87,5.72-2.46,8.76c0.37,2.75,1.93,5.84,4.58,7.01c1.81,0.8,3.61,0.51,5.13-0.39c-0.42,4.95-0.48,9.89,0.29,14.81
			c2.64,16.93,14.65,29.64,31.32,33.44c8.73,1.99,18.32,1.37,27.13,0.26c8.05-1.01,15.95-3.16,23.07-7.09
			c17.08-9.43,21.85-28.37,20.72-46.62c2.21,0.82,4.6,0.9,6.74-0.45c2.5-1.58,3.71-4.58,3.85-7.43c0.15-3.02-1.19-5.88-3.63-7.63
			c-2.07-1.49-6.2-1.95-8.75-0.65c-1.29-9.21-2.72-18.33-2.65-27.55c11.79,8.08,29.01,7.04,39.3-3.12
			C239.93,371.16,237.11,351.87,223.35,346.84z M92.69,429.6c-1.27,0.98-2.78,1.87-4.22,1.07c-1.65-0.91-2.34-3.19-2.62-4.9
			c-0.3-1.82,0.08-4.01,1.34-5.4c1.71-1.88,4.53-1.61,6.86-1.02C93.58,422.75,93.08,426.17,92.69,429.6z M196.54,414.52
			c1.18-0.08,2.31,0.14,3.34,0.73c1.59,0.92,2.22,2.89,2.27,4.62c0.05,1.84-0.59,3.7-1.94,4.97c-1.51,1.43-3.67,1.24-5.54,0.67
			c-0.29-3.52-0.71-7.01-1.17-10.49C194.5,414.97,195.52,414.59,196.54,414.52z M191.02,441.57c-0.88,9.58-5.03,18.72-12.08,25.28
			c-6.32,5.89-14.8,8.9-23.12,10.62c-17.84,3.7-39.15,3.27-51.88-11.54c-14.22-16.55-5.99-38.84-5.3-58.13
			c0.16-4.41-0.14-8.91-1.15-13.23c3.4-1.05,6.79-2.02,10.19-2.89c-2.96,1.59-5.34,3.67-5.59,6.21c-0.02,0.24,0.04,0.47,0.15,0.66
			c-0.06,0.18-0.09,0.37-0.08,0.55c-0.07,0.16-0.15,0.31-0.22,0.48c-0.3,0.69,0.06,1.32,0.57,1.59c-0.23,0.94,1.31,1.49,1.81,0.6
			c5.28-9.21,22.84-8.53,31.48-5.69c1.62,0.53,2.64-1.58,1.58-2.72c-3.09-3.35-7.03-4.95-11.23-5.44c6.77-1,13.64-1.59,20.71-1.71
			c1.72-0.03,3.45-0.05,5.18-0.06c0,0,0,0,0,0c2.14-0.01,4.27-0.01,6.41,0.02c-3.73,1.05-7.33,3.18-10.45,6.56
			c-1.12,1.21-0.13,2.8,1.13,2.91c0.02,0.98,1.16,1.75,2.12,0.9c8.79-7.88,24.19-3.38,31.73,4.3c1.42,1.44,3.76-0.4,2.77-2.13
			c-3.27-5.7-8.21-9.83-13.71-11.88c2.27,0.25,4.54,0.6,6.77,1.11c2.82,0.64,5.13,2.15,7.81,3.04c0.03,0.01,0.07,0.01,0.1,0.02
			c0.19,3.79,0.58,7.61,1.12,11.51C189.64,415.48,192.23,428.43,191.02,441.57z M119.59,391.5c2.1-0.36,4.25-0.44,6.33-0.18
			C123.84,391.24,121.7,391.29,119.59,391.5z M161.9,388.99c0.98-0.17,1.98-0.25,3.01-0.26c-0.68,0.06-1.37,0.14-2.06,0.25
			C162.53,388.98,162.21,388.98,161.9,388.99z M225.58,380.07c-9.54,8.81-24.6,7.51-35.09,1.34c0.18-4.1,0.68-8.23,1.66-12.4
			c0.42-1.79-1.7-2.74-2.82-1.87c-3.22-2.33-9.24-2.77-12.17-3.17c-7.06-0.96-14.29-1.42-21.41-1.75
			c-18.5-0.84-38.33,1.4-53.94,12.14c-1.16,0.8-0.12,2.67,1.12,1.92c14.86-9.07,33.17-10.83,50.22-10.39
			c6.48,0.17,12.97,0.73,19.42,1.33c3.19,0.3,6.37,0.73,9.5,1.42c2.26,0.5,4.04,1.49,6.02,2.41c-1.07,5.31-1.5,10.54-1.47,15.81
			c-1.82-1.33-4.17-2.15-6.61-2.7c0.46-1.87,0.54-3.82-0.22-5.64c-0.32-0.78-1.45-0.5-1.28,0.35c0.33,1.64,0.33,3.35,0.14,5.02
			c-2.53-0.46-5.06-0.68-7.14-0.89c-0.01,0-0.01,0-0.02,0c0.39-0.09,0.72-0.39,0.74-0.91c0.11-3.07,0.98-6.22,0.44-9.27
			c-0.15-0.86-1.54-0.84-1.71,0c-0.61,2.99-0.72,6.22-0.69,9.27c0,0.43,0.24,0.71,0.53,0.84c-2.64-0.25-5.3-0.39-7.96-0.46
			c0.07-0.11,0.12-0.23,0.13-0.39c0.25-3.14,0.66-6.45,0.64-9.6c-0.01-0.99-1.31-1.07-1.64-0.22c-1.14,2.93-0.76,6.75-0.52,9.82
			c0.01,0.14,0.06,0.26,0.11,0.36c-2.88-0.05-5.76-0.02-8.63,0.02c0.17-3.32,0.18-6.68-0.1-9.98c-0.09-1.01-1.48-1.01-1.56,0
			c-0.28,3.31-0.27,6.67-0.1,10c-0.93,0.01-1.85,0.03-2.78,0.04c-1.02,0.01-2.03,0.04-3.05,0.07c0.32-2.24,0.07-4.6-1.12-6.53
			c-0.43-0.7-1.62-0.25-1.36,0.57c0.61,1.92,0.82,4,0.67,6.03c-2.76,0.11-5.51,0.28-8.26,0.52c-0.15-3.86-0.92-7.68-1.74-11.45
			c-0.17-0.79-1.45-0.61-1.4,0.19c0.21,3.84,1.02,7.6,1.45,11.41c-2.73,0.27-5.46,0.61-8.17,1.02c-0.33-2.26-0.74-4.51-0.85-6.79
			c-0.05-0.96-1.48-0.97-1.5,0c-0.05,2.42,0.37,4.7,0.98,7c-2.99,0.49-5.97,1.06-8.92,1.75c-0.49-3.68-1.6-7.27-1.78-11.01
			c-0.05-1.05-1.63-1.06-1.64,0c-0.04,3.76,0.56,7.81,2.04,11.34c-2.27,0.56-4.52,1.17-6.75,1.86c-0.32-2.4-0.76-4.94-1.56-7.21
			c-0.37-1.04-1.77-0.61-1.62,0.45c0.34,2.39,0.94,4.93,1.77,7.21c-2.94,0.95-5.85,2-8.72,3.2c-0.59-1.96-1.36-3.87-2.3-5.7
			c1.23-2.01,1.43-4.6-0.09-7.85c-0.64-1.37-2.78-0.39-2.39,1.01c0.41,1.48,0.4,2.72,0.09,3.76c-0.62,0.06-1.18,0.72-0.82,1.48
			c0.01,0.02,0.02,0.04,0.03,0.07c-2.57,3.4-9.46,3.73-13.63,3.66c-7.87-0.12-17.78-1.9-23.98-7.12
			c-4.19-3.53-5.88-10.54-6.28-15.75c-0.5-6.53,1.85-13,5.86-18.09c8.41-10.67,23.16-13.1,35.14-7.44c0.39,0.18,0.79,0.22,1.15,0.15
			c-0.29,1.61-0.22,3.28,0.27,4.83c0.4,1.26,2.5,1.1,2.4-0.32c-0.16-2.22,0.12-4.24,1.24-6.18c1.17-2.03,2.78-2.23,4.88-2.49
			c1.32-0.16,2.21-2.03,0.75-2.77c-2.72-1.39-5.88,0.16-7.59,2.44c-0.36,0.47-0.66,0.99-0.93,1.52
			c-19.94-19.13,9.67-49.74,27.89-57.14c12.57-5.1,27.72-3.23,39.16,3.73c12.37,7.52,18.25,21.44,15.68,35.55
			c-0.37,2.04,2.31,3.39,3.45,1.45c8.03-13.6,28.41-9.94,37.7,0.28c8.32,9.15,9.48,29.63-3.87,34.52c-1.79-1.15-4.06-1.73-6.09-1.52
			c-1.38,0.15-1.98,2.41-0.36,2.65c1.54,0.23,2.98,0.49,4.27,1.26c0.15,0.8,0.76,1.51,1.68,1.52c0.34,0.48,0.61,1.02,0.79,1.59
			c0.34,1.03,0.13,2.08,0.77,3.01c0.65,0.95,2.01,1.03,2.65,0c1.01-1.64,0.23-3.89-0.9-5.64c3.92-1.74,6.72-4.66,8.5-8.25
			c5.53,1.98,8.71,6.72,9.92,12.43C233.3,369.53,230.47,375.55,225.58,380.07z"/>
		<path class="st5" d="M136.97,469.61c0.08,1.28,1.78,1.21,1.94,0c0.38-2.95,2.78-4.8,5.67-4.99c3.29-0.22,4.46,2.09,4.41,4.99
			c-0.03,1.52,2.44,1.92,2.71,0.37C153.52,459.38,136.37,459.67,136.97,469.61z"/>
		<path class="st5" d="M116.36,408.66c1.5-1.95,3.62-2.77,6.01-2.98c1.95-0.17,3.84,0.57,5.75,0.27c1.23-0.2,1.13-1.82,0.31-2.39
			c-2.04-1.42-5.46-0.95-7.77-0.52c-2.64,0.49-5.07,2.05-6.32,4.45C113.63,408.85,115.47,409.83,116.36,408.66z"/>
		<path class="st5" d="M154.65,406.45c2.11-0.88,4.28-1.55,6.56-1.81c2.79-0.31,4.82,0.97,7.42,1.36c1.38,0.21,2.25-1.19,1.34-2.3
			c-3.73-4.53-12.09-1.83-16.29,0.46C152.46,404.83,153.32,407,154.65,406.45z"/>
	</g>
	<g>
		<path class="st3" d="M626.42,210.72c-23-19.99-52.3-18.18-80.71-18.72c6.06-16.45,8.57-33.86,1.27-50.57
			c-6.75-15.44-23.03-24.3-38.86-27.35c-34.17-6.58-70.5,10.92-85.48,41.8c-18.69-31.34-45.21-57.88-81.16-68.23
			c-34.34-9.89-76.75-0.97-104.58,21.28c-40.98,32.76-82.78,110.01-37.05,150.51c-12.25,0.78-23.76,5.38-31.85,16.02
			c-11.2,14.73-12.6,34.44-9.38,52.09c3.05,16.67,12.32,34.22,28.06,41.93c16.81,8.25,34.29,0.53,47.07-11.12
			c4.91,19.6,14.66,37.73,18.34,57.51c-1.02,0.81-1.71,2.07-1.42,3.69c0.14,0.77,0.21,1.55,0.33,2.32
			c-6.03,18.13-14.22,35.62-18.43,54.25c-7.57,3.51-12,12.09-14.52,19.62c-2.72,8.14-3.34,18.61,1.82,25.95
			c3.34,4.76,13.08,8.95,19.88,7.35c-0.19,1.18-0.39,2.35-0.56,3.53c-3.85,26.12-3.44,52.98,4.01,78.43
			c14.37,49.06,56.6,75.41,104.49,84.86c47.68,9.4,100.85,8.37,143.8-16.67c48.09-28.03,66.43-83.58,56.98-136.39
			c-1.55-8.67-3.65-17.23-5.96-25.74c6.3-0.02,10.68-7.31,12.67-12.62c2.64-7.05,1.56-15.56-0.86-22.48
			c-4.09-11.71-14.95-19.48-25.1-13.49c-1.91-8.98-3.1-17.87-3.88-26.81c16.72-5.86,32.92-13.77,48.31-23.97
			c3.04-2.01,3.2-7.84-1.12-8.55c-16.95-2.83-33.94-3.93-50.12-9.8c1.34-19.66,2.49-40.73,10.89-57.78c0.27,0.31,0.58,0.6,0.95,0.86
			c21.96,15.61,49.22,22.59,75.71,16.36c27.3-6.43,46.24-30.18,52.03-56.77C669.47,267.8,651.83,232.8,626.42,210.72z
			 M248.99,373.98c37.65-26.53,81.83-39.69,127.43-44.65c49.24-5.36,98.13-0.1,141.84,23.87c0.16,0.09,0.31,0.14,0.47,0.21
			c-0.71,3.96-1.17,7.77-1.62,10.88c-1.58,11-2.15,22.32-1.87,33.57c-0.14,0.07-0.28,0.16-0.42,0.25
			c-6.6-8.3-17.25-14.29-28.19-18.57c5.16-9.9,8.61-20.7,12.89-31c0.99-2.37-2.87-3.88-4.08-1.72c-5.49,9.82-8.67,20.8-13.18,31.08
			c-5.97-2.1-11.87-3.72-17.08-4.96c-1.35-0.32-2.71-0.6-4.07-0.88c1.54-6.87,2.77-13.67,4.79-20.44c0.49-1.64-1.77-2.45-2.65-1.12
			c-4.03,6.06-3.93,14-4.92,21.01c-12.06-2.25-24.4-3-36.72-2.76c3.85-11.4,3.35-23.68,3.88-35.59c0.1-2.31-3.57-2.83-4.04-0.55
			c-2.47,12.03-0.79,24.54-4.6,36.3c-7.09,0.27-14.17,0.81-21.17,1.57c0-0.02,0-0.03,0-0.04c-0.48-3.38-0.9-6.7-1.04-10.11
			c-0.13-3.24,0.17-6.45-0.46-9.64c-0.38-1.95-3.55-1.95-3.93,0c-1.21,6.24-0.27,14.11,1.63,20.23c-0.22,0.03-0.45,0.05-0.67,0.08
			c-11.51,1.38-23.02,3.38-34.49,5.82c0.06-0.04,0.12-0.06,0.17-0.11c9.01-9.18,3.4-25.39-0.57-35.85c-0.9-2.36-4.3-1.47-3.8,1.05
			c1.78,9.04,8.77,24.93,2.53,33.38c-0.55,0.75,0.1,1.56,0.86,1.7c-24.55,5.27-48.84,12.79-72.11,22.21c0.09-0.38,0.1-0.8-0.09-1.24
			c-2.89-6.77-4.5-13.87-5.8-21.08c-0.55-3.05-5.37-1.78-4.68,1.29c1.69,7.5,3.64,14.85,7.34,21.63c0.13,0.23,0.28,0.39,0.44,0.54
			c-7.78,3.21-15.44,6.61-22.96,10.21C256.75,398.09,253.14,385.93,248.99,373.98z M365.61,385.02c-0.15,0.25-0.28,0.51-0.39,0.79
			c-1.85,0.16-3.7,0.3-5.54,0.45C361.65,385.82,363.63,385.42,365.61,385.02z M285,463.63c-0.15-0.16-0.31-0.31-0.46-0.47
			c-0.48-1.26-0.93-2.53-1.35-3.81c0.21-0.28,0.41-0.55,0.62-0.83C284.18,460.23,284.58,461.93,285,463.63z M273.84,464.91
			c-1.52,3.49-2.82,7.06-3.99,10.68c1.13-3.92,2.19-7.87,3.14-11.84C273.27,464.14,273.56,464.53,273.84,464.91z M261.31,426.03
			c-0.53,0.85-1.04,1.72-1.53,2.6c-0.11-0.8-0.26-1.59-0.39-2.39c0.32,0.02,0.65,0.03,0.97-0.02
			C260.69,426.17,260.99,426.08,261.31,426.03z M241.26,520.15c-5.01-0.7-10.88,2.32-14.71-3.22c-3.34-4.83-2.34-11.81-1.01-17.12
			c2.78-11.12,12.47-23.73,22.17-12.99C245.64,497.93,243.28,509.03,241.26,520.15z M547.21,486.78c1.39,4.6,1.5,9.54,0.35,14.19
			c-1.1,4.46-4.49,6.2-7,9.06c-3.18-11.2-6.59-22.35-9.49-33.59c-0.08-0.31-0.14-0.62-0.22-0.93
			C538.92,470.53,544.84,478.89,547.21,486.78z M525.9,497.89c8.94,31.46,19.24,63.5,13.27,96.52
			c-10.56,58.38-63.1,90.41-118.4,95.62c-50.43,4.75-113-4.24-147.76-44.42c-24.89-28.77-27.63-63.28-24.2-98.3
			c18.77-19.82,19.75-48,28.97-72.8c4.53,7.13,9.92,13.36,16.57,18.96c2.89,2.43,6.76,0.11,6.12-3.56
			c-3.89-22.15,1.51-43.07,3.15-64.9c0.4-1.24,0.75-2.49,1.06-3.76c64.98,31.21,141.1,44.07,209.66,23.94
			c0.14,1.26,0.27,2.52,0.45,3.78C517.1,465.59,521.32,481.75,525.9,497.89z M652.01,299.26c-4.12,25.07-23.12,44.46-47.47,50.21
			c-22.67,5.35-46.6-3.01-65.21-15.72c-0.6-0.41-1.18-0.64-1.75-0.77c-0.11-2.62-3.44-4.47-6.07-3.24
			c-5.54,2.58-8.74,8.45-10.75,15.01c-17.79-12.76-41.51-18.57-62.63-22.14c-26.95-4.56-54.59-4.46-81.71-1.7
			c-42.83,4.35-96.95,15.97-129.48,47.26c-1.59-4.42-3.22-8.82-4.8-13.19c-0.56-1.55-1.63-2.46-2.83-2.87
			c0.56-2.65-2.2-5.77-4.83-3.77c-12.23,9.32-28.44,19.53-43.94,11.84c-12.49-6.2-18.83-20.89-21.78-33.72
			c-3.22-13.99-2.08-29.8,5.36-42.28c9-15.11,26.94-16.92,42.67-13.59c5.26,1.11,9.03-6.37,3.81-9.04
			c-62.63-32-17.18-112.05,21.25-144.2c25.92-21.68,64.78-28.71,97.08-20.38c36.79,9.49,63.06,40.59,80.27,72.76
			c2.09,3.9,7.8,2.74,9-1.18c9.62-31.25,41.53-48.08,73.04-45.47c13.48,1.12,27,7.35,34.63,18.79c10.45,15.69,5.15,36.5-1.75,52.41
			c-1.51,3.48,0.23,7.38,4.33,7.54c26.11,1.05,52.7-2.38,75.79,12.41C641.44,231.68,657.19,267.72,652.01,299.26z"/>
		<path class="st3" d="M308.62,386.87c-2.58-11.27-4.39-22.53-5.81-34c-0.46-3.71-5.66-3.02-5.06,0.69
			c1.87,11.52,3.63,23.18,7.24,34.31C305.74,390.19,309.17,389.25,308.62,386.87z"/>
		<path class="st3" d="M333.56,376.06c0.03,0.23,0.12,0.46,0.33,0.66c0.78,0.73,1.92,0.54,2.31-0.5c-0.25,0.68,0.8-1.06,0.89-1.79
			c0.13-1.05-0.18-2.44-0.37-3.48c-0.92-5.18-2-10.25-3.46-15.29c-0.49-1.71-3.24-1.89-3.63,0c-0.73,3.44,0.36,7.14,1.17,10.47
			C331.39,368.53,331.67,373.79,333.56,376.06z"/>
		<path class="st3" d="M424.57,609.19c11.96-4.7,22.05-13.49,26.37-26.09c14.87-43.35-61.59-81.38-75.4-32.43
			c-1.11,3.92,5.02,6.73,6.73,2.84c16.04-36.45,71.89-3.57,57.51,29.56c-6.26,14.42-24.48,19.55-38.77,19.61
			c-18.18,0.09-28.3-9.3-34.98-25.08c-1.67-3.93-6.99-1.44-7.26,1.97c-0.9,10.98,4.88,19.09,13.16,24.59
			c-12.31,2.49-19.85,14.52-29.8,23.17c-1.51,0.95-3,1.94-4.45,3.03c-0.47,0.35-0.82,0.74-1.1,1.15c-3.35,2.13-7.01,3.77-11.24,4.49
			c-4.74,0.81-3.83,7.37,0,8.69c17.7,6.06,40.5,8.26,57.73,1.46c3.65,4.68,8.87,7.45,15.13,8.23c7.3,0.92,18.09-3.95,19.7-11.66
			c0.01-0.03,0-0.06,0.01-0.09c16.46,6.13,40.83,3.93,56.48,5.7c4.46,0.5,5.67-5.28,3.32-8.01
			C463.8,624.22,446.01,609.67,424.57,609.19z M399.66,647.69c-4.24,0.33-8.11-1.38-11.21-4.05c5.82-3.23,10.74-7.75,14.23-13.8
			c2.15,4.65,5.69,8.04,10.15,10.51C408.44,643.52,405.82,647.21,399.66,647.69z"/>
		<path class="st3" d="M408.32,667.44c-7.1-2.16-14.59,1.77-18.35,7.74c-1.57,2.48,2.23,5.51,4.12,3.18
			c2.87-3.55,7.02-5.53,11.58-4.34c5.76,1.51,4.21,7.82,7.09,11.54c1.48,1.92,4.37,0.95,5.51-0.71
			C422.84,678.18,414.39,669.29,408.32,667.44z"/>
		<path class="st3" d="M324.5,543.83c-2.39-7.72-2.78-16.69,6.82-18.44c9.32-1.7,11.63,9.65,11.08,16.41
			c-0.57,7.05,10.38,6.99,10.96,0c1.23-14.8-7.97-29.32-24.24-27.12c-16.25,2.21-20.18,20.11-13.24,32.78
			C318.44,552.16,326.09,548.96,324.5,543.83z"/>
		<path class="st3" d="M481.29,512.22c-6.37-1.14-12.83,0.38-17.54,4.94c-5.59,5.4-5.38,13.95-3.46,20.87
			c1.28,4.61,9.24,3.84,8.59-1.16c-0.95-7.35,1.17-15.71,10.27-14.02c3.28,0.61,6.09,2.38,7.8,5.26c2.4,4.04-1,8.8,1.71,12.61
			c1.07,1.51,3.01,2.73,4.94,2.01c7.78-2.91,5.91-14.31,2.82-20.16C493.5,517.03,487.33,513.3,481.29,512.22z"/>
		<path class="st3" d="M352.77,505.68c0.05,0.06,0.09,0.13,0.14,0.19c1.13,1.48,2.81,1.82,4.24,1.44c1.31,0.36,2.37-0.65,2.35-1.75
			c0.51-0.93,0.55-2.12-0.23-3.41c-3.82-6.27-8.59-11.93-13.67-17.22c-2.9-3.01-8.4,1.03-5.88,4.54c0.47,0.65,0.86,1.31,1.22,1.96
			c-4.14-1.81-8.39-3.38-12.6-5.31c-3.2-1.46-7.06,2.19-4.96,4.99c-3.63-0.95-7.22-2.02-10.78-3.35c-2.03-0.76-4.03,1.16-4.08,3.11
			c-0.05,2.27,1.02,4.12,2.56,5.74c-2.76-0.15-5.52-0.35-8.27-0.87c-4.38-0.82-6.09,5.22-1.84,6.68c1.61,0.55,3.24,1.08,4.86,1.62
			c-3.31,1.04-6.6,2.09-9.82,3.05c-4.47,1.32-2.59,8.2,1.92,6.98c4.4-1.19,8.68-2.48,12.89-4
			C324.6,505.63,339.09,501.32,352.77,505.68z"/>
		<path class="st3" d="M498.97,489.72c0.16-0.07,0.32-0.16,0.48-0.23c4.26-1.85,1.16-9.23-3.17-7.52c-1.97,0.78-3.97,1.38-5.98,1.89
			c0.6-0.52,1.19-1.03,1.78-1.57c3.39-3.14-1.21-9.31-5-6.48c-0.28,0.21-0.54,0.45-0.81,0.67l-0.02-0.02
			c-0.13,0.12-0.26,0.23-0.39,0.36c-1.47,1.18-2.89,2.41-4.26,3.68c-1.24,0.97-2.52,1.86-3.83,2.69c0.03-0.05,0.06-0.09,0.09-0.14
			c2.5-3.98-3.06-7.94-6.32-4.88c-2.02,1.9-4.19,3.6-6.33,5.31c-0.66-2.77-4.73-4.58-6.8-2.01c-1.87,2.31-4.04,4.28-6.23,6.24
			c0-0.04,0-0.08,0-0.12c0.02-5.31-7.82-5.2-8.16,0c-0.09,1.47-0.27,2.92-0.44,4.38c-0.27,2.27-1.78,5.38-0.45,4.43
			c-0.01,0.04-0.04,0.07-0.05,0.11c-0.07,0.31-0.15,0.62-0.22,0.94c-0.16,0.69-0.14,1.35,0.02,1.95c-0.18,0.16-0.38,0.31-0.56,0.48
			c-2.9,2.8,0.83,7.59,4.28,5.54c7.58-4.5,19.68-7.9,31.42-8.75c0.6,0.85,1.57,1.41,2.94,1.27c0.93,0.03,1.84-0.06,2.73-0.24
			c2.83-0.25,5.67-0.46,8.5-0.64c3.81,0.55,7.32,1.48,10.29,2.91c1.16,0.56,2.61,0.56,3.54-0.46
			C510.92,494.18,505.34,491.26,498.97,489.72z"/>
	</g>
	<g class="st0">
		<path class="st5" d="M503.65,338.87c-9.64-21.19-32.83-23.41-53.23-25.82c-17.63-2.08-35.5-1.08-50.97,6.48
			c-1.5-13.28-19.75-16.95-30.58-14.61c-14.66,3.17-18.81,16.59-19.64,29.68c-6.68-6.61-16.86-4.28-23.4,3.45
			c-8.1,9.58-6.55,21.98,3.17,28.9c-7.33,6.05-11.86,18.2-6.68,26.55c3.19,5.13,9.57,6.4,15,4.67c5.17-1.65,9.45-5.72,12.99-10
			c0.86,3.14,1.65,6.32,2.7,9.41c-0.25,8.29-1.7,16.67-3.08,25.04c-1.05-0.94-2.45-1.63-3.62-2.05c-1.52-0.55-3.18-0.43-4.61,0.3
			c-2.77,1.41-3.8,5.07-3.93,7.92c-0.13,2.98,0.68,6.33,3.23,8.13c2.35,1.67,4.99,0.46,7.01-1.24c-1.09,9.52-1.23,19,1.48,28.3
			c4.84,16.61,18.74,28.82,35.39,32.71c16.38,3.83,35.3-0.41,46.03-13.94c11.18-14.1,8.96-31.81,5-48.13
			c2.18,0.03,5.06-2.24,5.96-3.61c1.51-2.29,1.25-5.48,0.33-7.93c-1.33-3.53-4.73-6.13-7.92-5.87c-0.38-6.84-1.66-13.58-1.97-20.42
			c0.23-0.66,0.49-1.3,0.79-1.91c0.09-0.19,0.15-0.38,0.18-0.56c1.06-1.61,2.28-3.11,3.54-4.55c1.1-1.26,3.58-2.97,3.52-4.83
			c0-0.11-0.02-0.22-0.05-0.32c3,1.9,6.07,3.68,9.25,5.25c16.04,7.87,35.77,6.21,48.21-7.26
			C508.69,370.76,510.15,353.17,503.65,338.87z M348.48,431.97c-0.06,0.04-0.12,0.08-0.18,0.13c-1.09,0.96-2.34,1.94-3.76,2.34
			c-0.37,0.1-0.17,0.07-0.54,0.09c-0.1,0-0.19,0-0.29,0c-0.03,0-0.04,0-0.06,0c-0.02,0-0.03-0.01-0.07-0.02
			c-0.5-0.1-0.65-0.24-0.79-0.36c-0.61-0.53-0.85-1.13-1.14-2.06c-0.38-1.24-0.42-1.95-0.37-3.32c0.04-1.16,0.16-1.9,0.6-3.12
			c0.24-0.66,0.89-1.57,1.36-1.87c0.64-0.41,1.24-0.44,2.21-0.15c1.5,0.44,2.54,1.74,3.93,2.3
			C349.06,427.94,348.75,429.96,348.48,431.97z M352.84,385.21c-0.01-0.07-0.03-0.15-0.04-0.22c0.22-0.3,0.44-0.59,0.66-0.88
			c0.29-0.39,0.36-0.77,0.3-1.12c0.89-0.81,1.82-1.54,2.77-2.23c0.19,1.87,0.73,3.69,1.67,5.36c-1.86,0.93-3.53,2.2-4.49,3.87
			C353.44,388.39,353.16,386.79,352.84,385.21z M370.45,382.66c0.01,0.23,0.1,0.4,0.23,0.51c-1.79,0.17-3.57,0.42-5.33,0.75
			c0.03-0.08,0.04-0.16,0.02-0.25c-0.58-2.35-0.89-4.71-1.23-7.08c1.99-0.79,4.05-1.41,6.16-1.89
			C370.17,377.34,370.36,380.02,370.45,382.66z M371.96,374.35c2.85-0.54,5.78-0.83,8.73-0.92c0,0.01-0.01,0.02-0.01,0.03
			c-0.96,2.97-0.78,6.27-0.68,9.39c-2.78-0.04-5.57,0.02-8.33,0.25c0.09-0.11,0.16-0.25,0.17-0.43
			C371.92,379.91,372.12,377.11,371.96,374.35z M381.91,373.39c3.17-0.05,6.36,0.12,9.48,0.46c3.41,0.36,6.82,0.98,10.19,1.79
			c-1.63,2.38-1.88,5.82-2.25,8.66c-2.47-0.31-4.95-0.59-7.42-0.81c0.26-2.73,0.74-5.43,0.87-8.17c0.05-0.96-1.51-0.96-1.49,0
			c0.05,2.7-0.36,5.39-0.24,8.09c-1.31-0.11-2.63-0.21-3.94-0.29c-1.86-0.12-3.73-0.21-5.61-0.26c0.13-3.08,0.48-6.17,0.46-9.24
			C381.96,373.54,381.94,373.46,381.91,373.39z M411.41,378.66c1.25,0.47,2.5,0.96,3.72,1.49c1.23,0.53,2.44,1.11,3.63,1.73
			c-0.76,1.59-1.04,3.39-1.92,4.95c-0.1,0.18-0.11,0.34-0.08,0.49c-0.89-0.18-1.77-0.36-2.61-0.54c-1.72-0.37-3.44-0.69-5.17-1
			C410.6,383.69,411.58,381.3,411.41,378.66z M423.07,388.29c-0.12,0.13-0.17,0.27-0.2,0.42c-1.62-0.44-3.27-0.81-4.87-1.14
			c0.01-0.01,0.03-0.02,0.04-0.04c1.01-1.43,1.8-3.15,2.16-4.9c1.42,0.78,2.81,1.6,4.17,2.48c0.15,0.1,0.3,0.21,0.44,0.31
			C424.4,386.47,423.85,387.43,423.07,388.29z M426.31,386.59c1.68,1.41,3.25,2.99,5.11,4.04c0.24,0.14,0.48,0.2,0.7,0.2
			c-0.27,0.43-0.53,0.87-0.76,1.32c-0.11,0-0.23,0.01-0.34,0.04c-1.89-1.32-4.15-2.26-6.52-3.01
			C425.24,388.43,425.92,387.56,426.31,386.59z M407.85,385.16c-0.08,0.13-0.1,0.26-0.08,0.39c-2.33-0.4-4.67-0.76-7.01-1.07
			c0.75-2.79,1.74-5.7,2.08-8.54c2.4,0.62,4.77,1.36,7.11,2.19C409.58,380.66,409.28,382.96,407.85,385.16z M383.98,386.62
			c0,0.01-0.01,0.01-0.01,0.02c-3.27-0.14-6.54-0.15-9.82-0.13C377.42,386.37,380.71,386.44,383.98,386.62z M371.73,398.16
			c-0.88-0.42-1.76-0.86-2.63-1.31c0.37,0.12,0.74,0.24,1.12,0.35C370.71,397.53,371.22,397.85,371.73,398.16z M364.53,384.02
			c0.01,0.02,0.03,0.04,0.04,0.06c-0.66,0.14-1.33,0.28-1.98,0.45c-1.13,0.28-2.32,0.67-3.47,1.17c-0.69-1.89-1.09-3.84-1.35-5.82
			c1.53-1.01,3.13-1.86,4.78-2.61C362.7,379.62,363.44,381.96,364.53,384.02z M435.92,420.28c1.61,0.7,2.71,2.37,3.3,3.96
			c0.61,1.65,0.73,3.54-0.16,5.11c-0.86,1.51-2.65,1.42-3.97,1.99c-0.22-0.87-0.45-1.73-0.67-2.59c-0.7-2.66-1.35-5.32-1.89-8
			C433.56,420.12,434.69,419.74,435.92,420.28z M435.68,457.79c-0.21,19.48-14.22,33.93-33.25,36.25
			c-19.21,2.34-38.17-6.99-46.89-24.41c-7.19-14.36-4.58-30.14-2.12-45.75c3.22-8.65,5.05-17.89,6.47-27
			c12.37,10.99,29.73,11.78,45.69,11.81c1.63,0,2.55-2.54,0.88-3.27c-2.41-1.06-4.83-2.04-7.01-3.35c3.46,0.81,7.01,1.24,10.65,1.58
			c1.54,0.14,2.41-2.08,1.27-3.07c-2.23-1.94-4.04-4.2-4.77-7c7.21,0.41,15.44,2.29,21.18,6.45c-1.3,7.39-0.06,15.73,1.37,22.53
			C431.63,434.36,435.82,445.58,435.68,457.79z M486.49,386.8c-9.07,5.17-20.08,5-29.79,1.9c-10.13-3.24-18.64-10.44-27.17-16.52
			c-10.21-7.28-20.48-14.73-32.05-19.73c-8.85-3.82-22.81-7.2-26.35,5.05c-0.43,1.49,1.75,2.03,2.28,0.63
			c2.62-6.92,9.07-7.27,15.95-5.22c-2.94,0.91-5.98,2.69-7.15,3.57c-1.55,1.17-0.23,3.65,1.56,2.67c1.86-1.02,3.75-1.9,5.71-2.56
			c-0.05,0.97,0.69,1.97,1.82,1.54c0.12-0.05,0.24-0.1,0.36-0.15c0,0,0,0,0,0c0.01,0,0.01-0.01,0.02-0.01
			c0.65-0.27,1.28-0.56,1.89-0.89c1.19-0.4,2.41-0.62,3.57-1.07c4.89,2.37,9.34,5.18,12.05,6.84c10.16,6.23,19.41,14.08,29.39,20.64
			c-1.9,0.25-3.33,2.94-4.33,4.28c-0.29,0.38-0.57,0.77-0.86,1.17c-0.02-0.07-0.04-0.13-0.08-0.2c-1.22-2.6-4.28-4.5-6.57-6.09
			c-3.35-2.33-7.04-4.16-10.78-5.75c-7.82-3.34-16.13-5.34-24.57-6.31c-13.09-1.51-30.36,0.04-39.35,10.86
			c-0.68-2.89-1.69-5.92-3.65-7.66c-0.8-0.71-2.48-0.32-2.34,0.97c0.34,3.1,1.86,6.27,3,9.35c-5.89,7.17-18.31,18.12-24.48,6.22
			c-3.71-7.17,2.29-18.2,8.5-21.94c1.12-0.68,1.19-2.42,0-3.08c-9.81-5.46-11.67-15.98-4.7-24.71c5.97-7.48,15.87-9.27,20.91,0.04
			c0.85,1.57,3.3,0.83,3.3-0.89c0.01-12.22,1.78-26.05,14.96-30.64c9.4-3.27,27.17-0.29,29.49,11.21c0.03,0.14,0.08,0.26,0.15,0.37
			c-4.84,2.61-9.42,5.89-13.66,9.98c-1.55,1.49,0.77,3.78,2.35,2.35c7.68-6.99,17.44-12.38,27.42-15.08
			c11.58-3.13,23.9-2.52,35.71-1.27c10.11,1.07,20.42,2.03,30.11,5.27c10.06,3.36,17.37,10.22,21.75,19.81
			C508.25,357.97,501.95,377.99,486.49,386.8z"/>
		<path class="st5" d="M416.37,426.03c-3.63-0.17-6.49,1.98-7.25,4.89c-2.66-2.56-6.16-4.34-9.84-4.95
			c-6.94-1.15-13.72,2.9-12.54,10.54c0.15,0.94,1.5,0.63,1.56-0.21c0.47-6.56,5.56-8.85,11.57-7.45
			c6.68,1.56,11.36,7.27,11.21,14.13c-0.16,7.49-7.12,12.05-13.74,13.48c-3.45,0.75-7.29,0.49-10.54-0.92
			c-3.45-1.49-4.99-4.33-6.65-7.48c-0.57-1.08-2.6-0.65-2.43,0.66c0.59,4.46,3.31,7.44,6.85,9.19c6.78,2.29,14.09,1.69,20.66-1.21
			c5.07-3.11,8.64-8.27,8.75-14.59c0.05-3.01-0.84-5.78-2.37-8.16c-0.04-2.72,1.8-4.54,4.74-4.46c1.14,0.03,2.33,0.51,2.94,1.51
			c0.98,1.6-0.62,3.31,0.24,4.91c0.28,0.53,1.08,0.91,1.66,0.68c2.63-1.06,2.29-5.27,1.15-7.37
			C421.2,427.08,418.67,426.14,416.37,426.03z"/>
		<path class="st5" d="M401.37,471.61c0.51-0.6,0.55-1.21,0.25-1.91c-0.23-0.54-0.79-0.78-1.36-0.78c-0.88,0-1.32,0.73-1.88,1.27
			c-1.27,1.23-2.91,0.61-4.41,0.27c-0.86-0.19-1.49,0.82-0.86,1.48C395.4,474.37,399.22,474.1,401.37,471.61z"/>
		<path class="st5" d="M393.02,482.47c-0.79,0.77,0.26,2.21,1.2,1.55c2.26-1.58,5.68-2.73,7.63-0.04c0.57,0.78,0.81,1.7,0.56,2.64
			c-0.38,1.43-2.03,1.41-2.86,2.37c-0.64,0.74-0.44,1.95,0.59,2.23c2.07,0.57,4.36-1.62,5.05-3.41c0.65-1.7,0.26-3.62-0.71-5.12
			C401.72,478.45,396.24,479.31,393.02,482.47z"/>
		<path class="st5" d="M380.36,433.48c0.48-5.59-3.33-9.93-9.08-8.69c-4.95,1.07-7.42,6.33-4.11,10.39c1.21,1.48,3.32-0.4,2.53-1.95
			c-1.25-2.41,0.11-4.22,2.58-4.84c3.45-0.86,4.51,2.26,4.32,5.08C376.43,435.91,380.16,435.87,380.36,433.48z"/>
		<path class="st5" d="M372.27,421.68c0.7,0.06,1.2-0.31,1.48-0.83c1.05,0.23,2.1,0.48,3.15,0.74c0.73,0.18,1.38-0.12,1.78-0.61
			c0.3,0.21,0.6,0.44,0.89,0.69c1.15,1,3.08,0.16,2.83-1.39c0.8,0.67,2.06-0.49,1.53-1.46c-0.98-1.78-2.07-3.5-2.99-5.31
			c-0.82-1.6-3.17-0.46-2.79,1.18c0.17,0.76,0.29,1.53,0.39,2.29c-1.2-0.65-2.45-1.23-3.7-1.92c-1.42-0.79-2.87,0.64-2.52,1.94
			c-2.99-0.6-5.99-1.02-9.08-1.09c-2-0.05-2.23,2.57-0.66,3.36c-1.06,0.31-2.1,0.68-3.08,1.08c-1.4,0.58-1.16,2.41,0.35,2.59
			C363.94,423.43,368.03,421.29,372.27,421.68z"/>
		<path class="st5" d="M421.84,419.15c0.79-1.35-0.77-3.43-2.49-2.48c-1.31,0.72-2.73,1.2-4.16,1.67c0.05-0.59,0.09-1.19,0.09-1.8
			c0.01-1.77-2.48-2.49-3.35-0.91c-0.3,0.55-0.61,1.09-0.95,1.61c-0.32-0.58-0.7-1.12-1.05-1.6c-1.37-1.87-3.98-0.31-3.07,1.8
			c0.79,1.82,1.79,2.99,3.45,4.04c0.26,0.16,0.59,0.24,0.92,0.24c0.38,0.92,1.56,1.35,2.59,0.89c0.36-0.16,0.72-0.3,1.09-0.44
			c0.33,0.41,0.82,0.69,1.39,0.69c2.14,0,4.28,0.04,6.41,0.19c1.83,0.13,3.44,0.78,5.25,0.47c1.09-0.19,1.26-1.62,0.61-2.33
			C427.16,419.64,424.5,419.22,421.84,419.15z"/>
	</g>
	<g class="st0">
		<path class="st5" d="M723.93,543.42c1.11-6.54,0.39-13.13-3.91-18.56c-4.17-5.25-11.31-7.32-17.76-7.34
			c-11.1-0.04-21.38,6.76-24.27,16.71c-0.97-7.42-4.03-14.34-10.42-18.98c-7.69-5.57-18.19-5.6-27.11-3.76
			c-17.24,3.56-39.3,18.03-36.39,38.22c0.47,3.24,1.78,6.25,3.5,9.01c-6.72-1.28-13.81-1.46-20.2,1.05
			c-7.71,3.03-11.14,10.18-11.26,18.13c-0.27,17.83,23.12,30.87,38.13,21.49c0.39,1.24,0.73,2.49,1.04,3.73
			c-6.04-1.06-12.67,2.64-11.86,8.99c-14.43-0.86-15.24,17.76-6.61,26.86c-10.05,5.35-4.72,21.29,6.94,20.51
			c-0.36,1-0.58,2.04-0.7,2.92c-0.5,3.59-0.2,7.33,0.81,10.81c0.76,2.62,2.25,5.87,5.22,6.37c-0.81,2.88,1.24,6.35,4.09,7.83
			c-2.7,4.87-0.36,11.17,2.29,15.75c1.78,3.08,4.52,5.34,7.76,6.73c1.43,0.61,2.97,0.93,4.51,1.13c1.8,0.23,2.02,2.04,2.76,3.59
			c3.17,6.72,9.01,11.12,16.38,11.93c6.39,0.71,12.14-2,14.48-7.55c3.03,2.9,10.25,4.28,13.28,4.19
			c6.86-0.22,14.39-4.84,13.89-11.74c6.17,1.2,12.35-6.62,11.35-12.87c6.59-2.15,12.54-10.91,7.12-16.25c1.98-2.65,2.23-6.03,0.91-9
			c1.61,0.13,3.23-0.46,4.41-2.03c2.43-3.22,2.56-8.1,2.3-11.94c-0.09-1.4-0.28-2.95-0.64-4.45c1.88,1.6,5.26,1.13,7.49,0.83
			c3.91-0.54,7.89-2.41,10.24-5.63c2.53-3.46,1.16-8.49-1.2-11.55c-1.93-2.51-4.64-4.28-7.49-5.71c2.79-1.75,4.51-4.56,2.75-8.26
			c-1.98-4.15-6.25-7.08-10.76-7.97c3.49-6.17,4.33-14.05-2.41-18.49c-5.85-3.85-11.7-0.17-15.01,4.85
			c-0.01-4.81,0.31-9.64,1.12-14.51c13.7,9.62,39.72,11.58,48.05-5.53C754.49,567,743.16,540.87,723.93,543.42z M610.7,676.27
			c-0.4,0.22-0.69,0.27-1.03,0.27c0.01,0-0.44-0.16-0.59-0.29c-1.75-1.52-2.5-5.15-2.79-7.76c-0.32-2.95-0.34-6.56,0.98-8.84
			c0.22-0.38,0.42-0.57,0.64-0.71c0.2-0.12,0.43-0.16,0.68-0.11c1.38,0.26,2.84,1.73,3.92,2.92c0.4,0.44,0.77,0.88,1.18,1.29
			c-0.05,1.26-0.06,2.53-0.06,3.79c-1.22-1.23-2.81-2.14-4.31-2.55c-0.81-0.22-1.3,0.93-0.57,1.35c1.11,0.63,2.17,1.18,3.07,2.11
			c0.82,0.85,1.29,1.92,1.91,2.9c0.04,0.78,0.09,1.56,0.16,2.34C612.99,674.22,612.04,675.53,610.7,676.27z M616.75,599.04
			c10.86-8.09,24.22-13.33,37.05-17.21c12.01-3.63,31.98-8.48,40.16,4.45c0.31,0.49,0.71,0.75,1.13,0.84
			c-1.19,6.91-1.46,13.75-1.17,20.56c-2.56-2.25-5.43-4.06-8.47-5.52c-0.2-1.83-0.37-3.66-0.48-5.49c-0.06-0.95-1.45-0.96-1.49,0
			c-0.06,1.57,0.03,3.13,0.18,4.68c-2.02-0.86-4.11-1.58-6.25-2.17c0.5-6.67,0.97-13.35,0.82-20.02c-0.02-1.01-1.53-1.01-1.56,0
			c-0.24,6.5-0.9,13.04-1.05,19.56c-2.5-0.59-5.05-1.03-7.6-1.32c0.06-2.7,0.03-5.4-0.14-8.08c-0.05-0.76-1.13-0.76-1.18,0
			c-0.18,2.62-0.2,5.27-0.15,7.92c-2.4-0.22-4.8-0.33-7.17-0.34c-0.73,0-1.47,0.02-2.21,0.03c-0.24-4.63-0.97-9.24-1.54-13.83
			c-0.12-0.95-1.6-1.01-1.53,0c0.32,4.64,0.93,9.25,1.4,13.88c-2.76,0.12-5.53,0.35-8.32,0.72c-0.18-1.92-0.36-3.84-0.75-5.74
			c-0.14-0.69-1.31-0.54-1.23,0.17c0.21,1.92,0.38,3.84,0.58,5.75c-2.75,0.4-5.49,0.93-8.2,1.56c-0.73-3.13-1.6-6.23-2.77-9.24
			c-0.4-1.03-2.04-0.62-1.68,0.46c1.02,3.03,1.85,6.11,2.63,9.21c-2.44,0.62-4.85,1.33-7.21,2.13c-0.49-2.14-0.92-4.28-1.1-6.49
			c-0.09-1.03-1.58-1.06-1.62,0c-0.11,2.45,0.31,4.8,0.93,7.12c-2.28,0.83-4.52,1.74-6.69,2.74c-0.12-0.2-0.29-0.38-0.52-0.54
			c-0.22-0.15-0.44-0.29-0.66-0.42C618.32,602.59,617.62,600.78,616.75,599.04z M644.63,637.92c-0.53,1.28-1.36,2.32-2.38,3.06
			C643.19,640.14,643.99,639.09,644.63,637.92z M661.13,699.77c-0.85-1.18-1.92-2.07-3.17-2.44c0.68-0.53,1.3-1.14,1.89-1.8
			c1.68,0.81,3.62,0.1,4.53-1.66c0.37-0.71-0.55-1.49-1.13-0.87c-0.7,0.74-1.57,1.49-2.56,1.52c0.95-1.26,1.74-2.67,2.32-4.17
			c1.11,2.05,2.69,3.78,4.69,5.04C665.07,696.02,662.86,697.64,661.13,699.77z M675.66,693.95c-0.16,0-0.32-0.01-0.47-0.01
			c1.59-0.05,3.17-0.21,4.76-0.41C678.54,693.8,677.11,693.95,675.66,693.95z M708.64,651.49c1.95,1.73,2.23,5.48,2.4,7.88
			c0.2,2.95,0.09,6.41-1.23,9.12c-0.44,0.89-1,1.4-1.45,1.42c-1.09,0.03-2.31-1.45-3.26-2.07c-0.04-0.03-0.09-0.04-0.14-0.06
			c-0.02-1.2-0.06-2.39-0.12-3.58c0.37,1.03,1.92,0.52,1.73-0.59c-0.41-2.48,1.37-3.95,2.27-6c0.47-1.07-0.7-2.07-1.64-1.26
			c-1.42,1.23-2.32,3.26-2.54,5.25c-0.19-2.62-0.43-5.23-0.74-7.83C705.32,652.1,707.25,650.25,708.64,651.49z M698.77,647.99
			c-2.66,3.63-1.64,9.57,1.15,13.14c-2.28,3.85-1.74,7.92,0.04,11.93c-2.38,1.96-4.75,5.01-5.11,7.9c-0.04,0.04-0.08,0.08-0.11,0.12
			c-3.25-1-7.66-0.26-11,1c-0.18-0.07-0.36-0.15-0.54-0.22c-1.71-4.81-6.05-7.45-11.32-7.34c1.31-1.92,2.14-4.2,2.37-6.72
			c1.01-11.41-19.68-21.47-23.84-8.2c-0.39,1.26,1.37,1.88,2.04,0.86c5.47-8.26,18.2-1.46,18.06,7.34
			c-0.07,4.46-3.77,7.63-7.81,8.62c-4.74,1.16-7.57-1.85-9.95-5.41c-0.95-1.43-2.93-0.49-2.67,1.12c0.14,0.84,0.4,1.61,0.75,2.34
			c-2.73,0.13-4.94,2.17-5.57,4.91c-4.23-0.09-8.54,1.95-9.89,5.92c-3.6-0.47-9.13,0.38-10.33,2.9c-0.98-1.88-2.25-3.55-4.07-4.71
			c2.21-4.05,1.06-9.08-2.45-12.01c3.14-4.24,4.15-10.63,0.53-14.69c0.78-1.39,1.18-2.82,1.02-4.23c1.47-0.17,3.15-1.23,4.13-2.05
			c2.43-2.05,5.14-4.8,6.58-7.92c5.59,5.19,14.25,3.4,17.1-3.04c3.21,4.79,8.49,7.7,14.79,6.19c5.09-1.22,7.74-5.39,7.91-9.9
			c3.09,2.35,8.88,1.22,12.48-1.98c1.87,3.71,5.72,5.35,9.76,4.21C693.21,642.05,695.15,646.66,698.77,647.99z M742.64,582.63
			c-8.04,14.62-32.59,9.99-43.35,1.69c-0.54-0.41-1.13-0.4-1.63-0.14c-0.26-0.08-0.52-0.13-0.78-0.11
			c-7.08-13.89-28.37-10-40.33-6.88c-8.75,2.29-17.24,5.74-25.37,9.68c-5.58,2.71-11.44,5.72-16.13,9.88
			c-0.38-0.33-0.93-0.45-1.53-0.15c-14.3,7.14-33.91-3.28-33.65-19.82c0.27-16.83,19.73-16.5,31.59-13.34
			c1.91,0.51,2.96-1.74,1.81-3.11c-15.15-18.15,3.66-36.8,20.99-43.19c8.79-3.24,19.45-4.63,28.2-0.51
			c10.27,4.83,12.52,16.21,12.02,26.55c-2.07-0.09-4.17,0.35-6.02,1.18c-1.17,0.53-0.27,2.09,0.81,1.92
			c2.72-0.43,5.36-0.33,7.92,0.77c1.96,0.84,3.08,2.69,4.99,3.47c1.08,0.44,1.78-0.79,1.66-1.66c-0.28-2.05-2.36-3.44-4.33-4.34
			c0.05-0.11,0.07-0.24,0.06-0.38c-0.67-13.32,9-22.43,22.07-22.92c5.46-0.2,11.06,1.48,14.94,5.43c4.85,4.94,4.66,12.42,3.1,18.68
			c-0.35,1.39,0.91,2.72,2.33,2.33C740.67,542.52,750.23,568.82,742.64,582.63z"/>
		<path class="st5" d="M634.01,653.4c-2.21,0.07-4.34,1.14-5.46,3.09c-1.51,2.65-0.37,5.87,1.07,8.26c1.19,1.96,4.1,0.24,3.06-1.79
			c-1.22-2.37-1.98-5.71,1.58-5.8c1.23-0.03,2.45,0.47,3.35,1.31c1.36,1.27,0.78,3.54,2.33,4.49c0.45,0.28,1.15,0.31,1.6,0
			c2.43-1.67,0.31-5.58-1.25-7.18C638.7,654.14,636.28,653.33,634.01,653.4z"/>
		<path class="st5" d="M688.84,651.9c-2.15-0.81-4.87-0.8-6.79,0.55c-2.61,1.83-3.03,5.57-2,8.39c0.54,1.48,2.69,1.26,2.76-0.37
			c0.07-1.44-0.17-3.85,1.11-4.81c1-0.76,2.21-0.66,3.46-0.3c1.2,0.35,2.44,1.17,3.07,2.12c0.27,0.42,0.39,0.95,0.36,1.13
			c-0.1,0.6-0.57,1.25-1,1.79c-1.15,1.42,0.3,3.77,2.07,2.68c2.2-1.36,3.36-3.99,2.33-6.48
			C693.23,654.24,691.15,652.77,688.84,651.9z"/>
	</g>
	<g class="st0">
		<g class="st2">
			<path class="st3" d="M229.56,77.8c-6.63-8.72-18.06-13.25-28.82-13.05c-9.17,0.17-16.84,4.54-21.76,11.49
				c-0.72-8.69-4.79-16.72-15.32-16.18c-9.29,0.48-16.79,7.92-18.47,16.68c-5.78-6.65-14.4-11.01-23.28-7.8
				c-8.01,2.89-10.71,11.3-9.08,18.87c-13.48-8.25-34.72-3.82-44.11,9.22c-7.74,10.76-4.66,25.72,3.55,35.2
				c8.67,10.02,24.94,13.46,36.73,7.19c0,0.03-0.01,0.05-0.01,0.09c0.04,4.91-0.7,9.71-1.86,14.44c-4.75,1.83-8.58,6.48-10.49,10.97
				c-1.98,4.68-1.49,9.61,0.42,14.08c-1.15-0.65-2.5-0.96-3.95-0.72c-3.21,0.53-5.53,3.27-6.85,6.07c-1.4,2.96-1.79,6.48-0.36,9.49
				c1.5,3.15,5.91,4.46,8.99,3.06c-0.46,4.89-0.37,9.85,0.48,14.93c3.48,20.76,19.38,35.96,39.84,39.72
				c19.07,3.5,39.87,2.2,55.7-10.09c8.23-6.39,13.38-16.11,15.32-26.22c1.7-8.87-0.05-17.83-3.06-26.23c3.28-0.4,6.64-2.39,7.6-5.52
				c1.02-3.29-0.92-6.97-2.91-9.46c-2.04-2.54-4.85-4.91-8.19-5.33c-2.2-0.28-3.57,0.95-4.29,2.62c-1.41-2.96-2.79-5.94-4.09-8.95
				c6.15-1.55,11.96-4.23,17.02-8.4c6.14-5.07,16.55-18.12,4.53-23.12c-11.04-4.59-19.93,3.11-27.75,10.56
				c-0.86-5.13-1.4-10.33-1.87-15.56c0-0.03-0.01-0.06-0.02-0.09c0.07-0.18,0.1-0.38,0.1-0.58c15.75-0.04,34.42-2.24,44.53-15.47
				C235.16,100.08,237.21,87.88,229.56,77.8z M214.31,136.37c0.45,0.7,0.63,1.47,0.59,2.29c-0.04-0.11-0.1-0.21-0.15-0.32
				c0.04-0.21,0.03-0.42-0.1-0.59c-0.23-0.3-0.42-0.62-0.61-0.95C214.15,136.67,214.24,136.53,214.31,136.37z M210.15,133.68
				c-0.15,0.06-0.28,0.14-0.39,0.23c-0.83-0.36-1.7-0.66-2.58-0.91C208.16,133.1,209.15,133.33,210.15,133.68z M206.89,139.07
				c0.06-0.09,0.11-0.19,0.15-0.28c0.17,0,0.34-0.02,0.5-0.03c-0.17,0.24-0.33,0.49-0.5,0.73c-0.1-0.07-0.21-0.13-0.33-0.18
				C206.77,139.23,206.83,139.15,206.89,139.07z M197.3,135.78c-0.03,0.09-0.05,0.19-0.06,0.28c-1.18,0.71-2.33,1.45-3.45,2.24
				C194.93,137.37,196.1,136.52,197.3,135.78z M96.11,188.98c-0.81-1.45-1.88-2.78-2.84-3.73c-0.61-0.61-1.53,0.32-0.95,0.95
				c0.99,1.06,1.74,2.23,2.36,3.53c0.37,0.78,0.57,1.63,0.81,2.45c-0.18,1.09-0.34,2.18-0.47,3.28c-0.03-0.01-0.05-0.03-0.09-0.04
				c-2.49-0.71-5.2-0.4-6.49-3.09c-0.92-1.91-0.2-4.53,0.61-6.34c0.84-1.88,2.3-3.87,4.34-4.53c1.53-0.49,2.98,0.27,4.28,1.21
				C97.08,184.77,96.55,186.87,96.11,188.98z M200.07,171.23c2.37,0.69,4.44,2.76,5.87,4.68c1.34,1.79,2.66,4.24,2.19,6.54
				c-0.57,2.8-3.6,3.19-6.08,3.62c-0.41-1.04-0.84-2.08-1.28-3.1c-0.03-0.06-0.06-0.12-0.08-0.18c0.08-0.22,0.21-0.54,0.24-0.63
				c0.14-0.59,0.28-1.17,0.48-1.75c0.51-1.49,1.56-2.9,1.69-4.46c0.06-0.69-0.85-1.21-1.42-0.82c-1.33,0.92-2.03,2.84-2.41,4.47
				c-0.86-1.88-1.73-3.75-2.61-5.61C197.01,172.13,197.87,170.59,200.07,171.23z M187.08,163.23c0.08,0.19,0.15,0.38,0.23,0.58
				c4.92,11.37,11.28,22.2,14.22,34.34c3.01,12.44-0.15,25.7-8.43,35.44c-6.85,8.06-16.94,12.35-27.09,14.38
				c-20.92,4.19-46.82-0.52-59.45-19.06c-6.81-9.99-9-22.84-7.26-34.66c0.75-5.06,2.15-9.95,3.76-14.79
				c3.22-4.94,6.04-10.15,9.44-14.98c4.36-6.19,9.3-9.86,15.95-12.05c5.7,0.99,11.13,3.3,16.69,5.49
				c7.34,2.89,14.95,4.67,22.77,5.59C174.27,164.26,180.8,164.28,187.08,163.23z M111.78,139.81c0.37,0,0.73-0.14,1.02-0.48
				c7.6-8.95,21.19-13.49,32.13-16.41c10.44-2.79,26.04-5.54,34.54,3.1c0.31,5.75,0.84,11.39,1.79,16.92
				c-8.86-7.51-22.83-7.3-33.62-5.43c-12.17,2.11-25.65,7.08-36.31,14.07C111.87,147.69,112.04,143.76,111.78,139.81z
				 M163.49,155.73c0,0.01,0,0.02,0,0.03c-1.1-0.14-2.2-0.3-3.3-0.48c-0.48-0.15-0.96-0.3-1.44-0.44
				C160.33,155.13,161.91,155.43,163.49,155.73z M223.78,108.29c-10.24,12.21-28.83,12.74-43.48,13.02
				c-8.75-7.54-24.01-5.15-34.18-2.79c-11.94,2.77-27.44,8.05-35.3,18.23c-0.19-0.11-0.42-0.16-0.69-0.08
				c-12.14,3.54-24.71,2.82-34.19-6.47c-8.24-8.08-10.15-21.51-3.74-31.14c5.22-7.85,15.32-11.54,24.4-11.57
				c10.01-0.03,17.41,5.14,22.57,13.16c-0.77,1.76-0.93,3.84-0.23,6c0.41,1.27,2.64,1.12,2.44-0.33c-0.16-1.23-0.19-2.45,0.14-3.58
				c1-0.07,1.95-0.91,1.54-2.08c-0.02-0.07-0.06-0.14-0.08-0.21c1.43-1.24,3.56-1.6,5.35-1.86c1.73-0.24,1.1-2.68-0.38-2.83
				c-2.41-0.24-4.59,0.43-6.25,1.68c-1.52-3.01-3.54-5.49-5.91-7.49c-0.76-7.24-0.28-15,7.85-17.76c8.86-3,17.27,3.91,21.54,11
				c0.92,1.53,3.76,1.02,3.57-0.97c-0.83-8.74,4.98-16.28,13.51-18.12c11.27-2.44,13.65,9.42,12.91,18.07
				c-2.11-0.64-4.43-0.67-6.57,0.01c-1.42,0.46-1.25,2.93,0.37,2.73c2.19-0.27,4.14-0.25,6.14,0.68c0.33,0.66,0.99,1.07,1.67,1.11
				c1.18,1.11,1.89,2.61,2.6,4.1c0.63,1.32,3.01,0.73,2.83-0.77c-0.28-2.39-1.47-4.36-3.16-5.79c7.55-19.87,34.05-19.54,46.87-4.61
				C233.47,88.45,230.69,100.06,223.78,108.29z"/>
		</g>
		<g class="st2">
			<path class="st3" d="M133.82,185.94c-1.03,0.79-0.48,2.86,0.97,2.31c7.1-2.72,14.09-4.48,21.72-3.05
				c7.85,1.47,14.28,6.75,14.66,15.08c0.49,10.58-7.55,18.37-16.12,19.62c-0.38-0.17-0.82-0.13-1.14,0.13
				c-5.92,0.46-11.92-2.25-15.38-9.39c-0.48-0.98-2.05-0.29-1.74,0.73c0.76,2.54,1.95,4.69,3.44,6.47
				c5.49,3.94,13.31,6.62,19.85,4.22c4.33-1.58,7.39-5.02,10.53-8.28c2-3.05,3.3-6.57,3.72-10.22
				C176.73,182.6,148.27,174.89,133.82,185.94z"/>
		</g>
		<g class="st2">
			<path class="st3" d="M157.07,235.68c-0.99,0.86-1.4,2.12-2.59,2.79c-0.93,0.52-1.88-0.37-2.4-1.07
				c-0.55-0.73-1.64-0.31-1.47,0.62c0.34,1.87,1.74,3.36,3.79,3.09c2.21-0.29,4.4-2.4,4.66-4.61
				C159.18,235.4,157.74,235.09,157.07,235.68z"/>
		</g>
		<g class="st2">
			<path class="st3" d="M118.67,176.49c-6.12,1.6-7.3,8.66-3.79,13.28c0.97,1.28,3.57,0.59,2.85-1.2c-1.11-2.78-1.75-6.62,1.81-7.85
				c3.4-1.17,5.03,1.89,4.92,5.01c-0.1,2.81,4.26,2.8,4.36,0C129.03,179.86,124.84,174.88,118.67,176.49z"/>
		</g>
		<g class="st2">
			<path class="st3" d="M171.55,181.53c0.39,1.5,2.69,1.18,2.68-0.36c-0.03-3.39,1.29-6.73,5.23-5.66c1.45,0.39,2.57,1.43,3.27,2.73
				c1.09,2.03-0.44,4,0.05,6.03c0.27,1.12,1.76,1.79,2.75,1.12c2.73-1.86,2.17-6.34,1.03-8.98c-1.05-2.44-3.52-4.14-5.99-4.88
				c-2.55-0.76-5.14-0.19-7.2,1.41C170.81,174.92,170.82,178.73,171.55,181.53z"/>
		</g>
	</g>
	<g class="st0">
		<path class="st5" d="M481.53,133.9c3.2-18.56-14.29-33.44-31.7-31.16c1.42-8.74-2.91-16.6-12.24-18.8
			c-7.3-1.72-14.7,1.13-18.8,6.9c-2.38-7.64-8.18-14.12-16.64-15.1c-9.12-1.06-14.57,5.04-16.11,12.79
			c-12.31-15.9-38.45-21.29-54.74-8.47c-9.14,7.2-12.27,17.25-9.03,28.38c2.5,8.61,9.11,16.57,17.83,18.73
			c-4.01,3.02-7.17,6.92-7.49,12.26c-0.34,5.69,3.83,10.53,8.07,13.71c10.74,8.06,26.8,6.99,35.57-2.91c0,0.07,0.01,0.13,0.01,0.2
			c-0.18,0.14-0.31,0.34-0.35,0.62c-0.37,2.57-0.95,5.07-1.69,7.52c-9.62-4.29-24.9,3.1-21.06,13.84
			c-14.34-0.45-27.64,20.19-14.89,30.23c-0.01,0.02-0.01,0.04-0.01,0.06c-0.58,0.35-0.93,1-0.64,1.84c0.06,0.17,0.13,0.32,0.19,0.49
			c-0.96,9.59,9.19,18.35,17.3,11.65c0.31,2.13,0.79,4.31,1.51,6.54c6.89,21.4,32.99,34.48,54.54,29.5
			c3.84,3.14,10.46,2.72,15.44,0.87c4.49-1.67,8.32-4.57,11.21-8.37c1.11-1.46,2.15-3.5,2.73-5.63c0.15-0.04,0.3-0.11,0.44-0.24
			c11.54-11.02,19.24-25.76,18.89-41.73c3.12,0.24,6.61-0.97,8.27-3.33c1.67-2.38,1.27-5.56,0.36-8.26c0.05-0.02,0.1-0.03,0.15-0.07
			c10.81-8.12,1.87-21-9.26-19.18c0.61-3.13-0.29-5.96-2.7-7.9C468.63,155.93,479.49,145.69,481.53,133.9z M339.67,191.57
			c-0.08,0.01-0.15,0.04-0.23,0.06c0.15-0.68,0.37-1.33,0.66-1.95c0.06,0,0.13-0.01,0.19-0.01
			C340.04,190.29,339.84,190.92,339.67,191.57z M359.3,175.28c0.47-0.08,0.93-0.19,1.38-0.31c-0.05,0.12-0.09,0.25-0.14,0.37
			c-0.29,0.15-0.58,0.28-0.87,0.39c-0.07,0.02-0.13,0.03-0.19,0.05c-0.07-0.03-0.14-0.07-0.21-0.1c-0.27-0.09-0.54-0.16-0.82-0.24
			c-0.05-0.07-0.09-0.14-0.12-0.21C358.65,175.31,358.98,175.33,359.3,175.28z M352.62,206.4c-0.36-0.14-0.71-0.3-1.04-0.47
			c0.4,0.04,0.8,0.04,1.2,0C352.7,206.07,352.65,206.23,352.62,206.4z M356.62,196.23c-0.49-1.26-1.25-2.84-2.48-3.51
			c-0.99-0.54-1.96,0.52-1.48,1.48c0.51,1.03,1.5,1.8,2.09,2.81c0.52,0.9,1.11,1.92,1.55,2.88c-0.19,0.72-0.38,1.43-0.54,2.16
			c-1.81,0.65-3.73,1.91-5.38,0.4c-1.48-1.36-1.29-4.07-0.94-5.84c0.41-2.11,1.42-4.57,3.27-5.82c2.15-1.45,4.4,0.17,6.17,1.58
			c-0.7,1.73-1.34,3.47-1.9,5.23C356.9,197.16,356.8,196.7,356.62,196.23z M443.13,232.37c-0.01-0.04-0.01-0.08-0.02-0.11
			c-1.73-5.79-7.44-7.53-12.92-8.13c2.54-2.98,4.26-6.74,4.72-11.29c1.23-12.28-5.54-21.52-16.97-25.45
			c-9.76-3.36-22.32-0.32-23.26,11.48c-0.11,1.4,2.07,1.64,2.41,0.33c2.6-10.03,12.17-11.06,20.78-8.02
			c9.86,3.49,15.07,12.76,13.1,23.02c-1.75,9.13-10.61,14.13-19.27,14.7c-10.05,0.67-17.78-4.74-24.05-12.01
			c-0.98-1.13-2.4,0.31-1.9,1.47c3,6.95,9.26,11.33,16.32,13.17c-4.04,3.25-6.86,8.21-12.88,7.39c-1.89-0.26-2.85,1.87-1.28,3.05
			c6.79,5.1,19.18,4.46,26.51-1.07c-0.16,0.32-0.16,0.72,0.17,1.02c1.37,1.24,3.1,1.73,4.87,1.05c1.59-0.61,3.28-2.16,3.01-3.98
			c-0.1-0.69-0.95-0.85-1.47-0.6c-0.97,0.46-1.34,1.57-2.19,2.21c-1.02,0.77-2.08,0.45-3.09-0.15c-0.21-0.12-0.42-0.14-0.61-0.1
			c1.61-1.35,2.94-2.95,3.85-4.81c1.23,1.94,3.71,3.03,6.69,3c4.02-0.04,7.7-1.63,11.45-2.9c-0.32,2.39-0.47,4.58-1.98,7
			c-1.92,3.07-5.12,5.28-8.28,6.9c-3.88,1.99-9.4,3.06-13.26,1.09c-0.1-0.68-0.58-1.27-1.4-1.16c-0.08,0.01-0.16,0.02-0.24,0.03
			c-0.92-0.83-1.68-1.92-2.18-3.34c-0.31-0.87-1.79-0.8-1.7,0.23c0.11,1.32,0.41,2.45,0.86,3.43c-10.28,0.91-20.05-0.51-29.4-5.51
			c-10.49-5.62-18.17-15.41-20.63-27.07c-1.99-9.45,0.36-18.08,4.04-26.5c5.09-2.72,9.29-7.5,11.42-12.9
			c4.96,4.89,13.28,4.65,18.59,0.05c5.14,7.97,16.57,4.62,22.8-1.18c8.33,3.79,17.87-0.97,20.22-9.47c0.78,1.64,1.95,3.11,3.39,4.13
			c2.31,1.65,5.7,2.24,8.05,0.51c3.56,5.94,6.48,12.05,7.89,19.04c0.3,1.5,0.51,2.97,0.64,4.42c-0.04,0.21-0.02,0.43,0.05,0.64
			C456.98,209.65,450.65,221.24,443.13,232.37z M400.9,166.74c-3.04,0.05-6.13-0.05-9.18-0.37c1.23-1.13,1.21-3.28,0.99-4.81
			c-0.1-0.7-1.31-0.7-1.41,0c-0.11,0.73-0.18,1.45-0.2,2.19c-0.02,0.68-0.11,1.59-0.71,2.03c-0.16,0.11-0.25,0.26-0.28,0.4
			c-0.42-0.05-0.84-0.12-1.26-0.19c-1.18-0.46-2.36-0.95-3.54-1.45c-0.06-1.77,0.4-3.4,0.8-5.23c0.17-0.75-0.74-1.06-1.18-0.5
			c-1.07,1.39-1.46,3.22-1.33,5.01c-1.72-0.72-3.45-1.43-5.22-2.08c-0.07-0.14-0.15-0.28-0.28-0.42c-0.44-0.48-0.92-0.9-1.42-1.29
			c0.37-1.37,0.69-2.75,0.94-4.14c0.44-0.51,0.77-1.29,0.99-2.25c6.43,2.41,13.68,3.87,21.04,4.2
			C399.42,160.84,400.16,163.87,400.9,166.74z M384.22,176.93c-1.06,0.32-2.08,0.25-3.03-0.11c0.69,0.1,1.38,0.15,2.06,0.18
			C383.43,177,383.78,176.98,384.22,176.93z M420.49,163.93c0.01,0.05,0.03,0.09,0.05,0.14c-3.05,0.91-6.22,1.5-9.27,1.9
			c0.56-1.22,0.89-2.89,0.35-3.99c-0.27-0.56-1.21-0.56-1.48,0c-0.29,0.6-0.25,1.17-0.24,1.83c0.01,0.81-0.16,1.54-0.39,2.31
			c-0.01,0.03,0,0.05-0.01,0.07c-0.52,0.06-1.03,0.11-1.54,0.16c-1.78,0.17-3.6,0.29-5.44,0.35c-0.43-2.92-0.71-5.88-1.19-8.79
			c6.15,0.13,12.34-0.55,18.16-2.11c-0.24,0.14-0.4,0.39-0.4,0.75C419.12,159,420.16,161.5,420.49,163.93z M428.3,156.77
			c0.2,1.14,0.91,2.1,1.17,3.23c-2.22,1.5-4.71,2.67-7.33,3.57c0.21-2.31-0.02-5.54-1.37-7.47c-0.21-0.3-0.56-0.43-0.88-0.4
			c5.31-1.47,10.3-3.68,14.66-6.73c0.02-0.02,0.04-0.04,0.07-0.06c0.37,1.38,0.84,2.72,1.4,4.04c-0.01,0.02-0.03,0.04-0.05,0.07
			c-1.25,2.31-2.94,4.2-4.89,5.78c-0.23-1.05-0.68-2.07-1.39-2.84C429.08,155.3,428.17,156.01,428.3,156.77z M412.81,175.07
			c-0.24,0.21-0.5,0.41-0.76,0.6c-0.03-0.2-0.1-0.4-0.19-0.57C412.17,175.09,412.49,175.09,412.81,175.07z M445.08,160.64
			c-0.32-0.52-0.64-1.04-0.95-1.57c0.29,0.07,0.58,0.11,0.87,0.16C444.83,159.68,444.84,160.18,445.08,160.64z M445.14,160.74
			c0.07,0.12,0.15,0.24,0.26,0.36c0.33,0.36,0.64,0.72,0.95,1.08c0,0.01,0.01,0.02,0.01,0.03c0.06,0.15,0.12,0.29,0.19,0.44
			c-0.05,0.05-0.09,0.11-0.13,0.18C445.98,162.13,445.56,161.43,445.14,160.74z M450.75,162.05c-0.22-0.33-0.45-0.66-0.69-0.98
			c0.26,0.02,0.5,0.07,0.73,0.13c-0.05,0.17-0.08,0.35-0.07,0.56C450.73,161.86,450.74,161.95,450.75,162.05z M460.22,179.72
			c2.27,1.09,3.83,3.54,4.89,5.73c1,2.07,1.78,4.98,0.61,7.14c-1.19,2.2-3.71,2.05-6.05,1.88c-0.03-0.3-0.05-0.61-0.08-0.91
			c-0.12-1.13-0.29-2.24-0.49-3.34c0.58-1.41,1.44-2.71,2.42-3.87c0.59-0.69-0.32-1.64-1.01-1.01c-0.77,0.71-1.43,1.5-1.96,2.36
			c-0.52-2.13-1.19-4.2-1.97-6.23C457.37,180.08,458.51,178.9,460.22,179.72z M441.03,153.77c-0.55-0.96-1.1-1.91-1.63-2.89
			c0.07-0.15,0.07-0.32-0.05-0.48c-0.38-0.5-0.71-1-1.03-1.51c-0.43-0.81-0.85-1.63-1.27-2.46c-0.56-1.34-0.97-2.74-1.3-4.25
			c-0.53-2.44-0.39-5.55-1.87-7.64c-0.45-0.64-1.74-0.73-1.88,0.25c-0.43,2.83,0.7,6.19,1.47,8.91c0.2,0.7,0.44,1.38,0.73,2.04
			c-0.42-0.16-0.92-0.15-1.45,0.16c-16.55,9.73-35.64,9.86-53.79,5.14c0.46-6.62-1.54-17.05-2.96-19.14
			c-0.65-0.95-1.9-0.52-2.03,0.55c-0.49,3.93,1.46,9.08,1.92,13.02c0.06,0.54,0.1,1.08,0.15,1.61c-8.6,8.37-20.77,10.23-31.45,4.22
			c-3.98-2.24-7.42-5.77-8.34-10.35c-1.25-6.19,5.14-10.94,9.76-13.49c1.55-0.86,0.83-3.27-0.89-3.28
			c-10.21-0.04-17.03-8.69-19.67-17.8c-2.93-10.1,1.35-19.06,9.85-24.76c16.27-10.92,41.48-3.45,50.53,13.36
			c0.87,1.62,3.52,0.9,3.46-0.94c-0.25-7.88,3.23-15.28,12.09-14.69c8.74,0.58,14.14,9.37,14.76,17.29c0.16,2.06,3.1,2.64,3.7,0.5
			c2.09-7.44,9.35-10.97,16.72-9.57c8.53,1.62,11.16,9.38,8.92,17.03c-0.41,1.42,0.96,2.7,2.34,2.34
			c15.95-4.13,31.17,8.81,30.06,25.17C476.83,147.81,455.24,160.7,441.03,153.77z"/>
		<path class="st5" d="M387.3,187.34c-2.5-1.85-5.98-1.78-8.8-0.8c-3,1.05-5.62,3.25-6.59,6.35c-0.9,2.89,0.92,8.86,4.71,8.12
			c0.3-0.06,0.54-0.34,0.62-0.62c0.63-2.3-1.86-3.95-1.23-6.38c0.42-1.63,2.15-2.79,3.63-3.35c1.6-0.6,3.49-0.82,5.02,0.08
			c2.19,1.28,0.63,4.12,1.86,5.78c0.74,1,1.9,1.18,2.87,0.37C392.13,194.62,389.6,189.04,387.3,187.34z"/>
		<path class="st5" d="M440.33,181.15c-2.87,0.45-10.13,3.84-9.38,7.68c0.19,0.96,1.56,1.28,2.19,0.58
			c1.61-1.77,4.58-3.39,7.15-4.15c0.63-0.19,1.22-0.28,1.87-0.26c0.38,0.01,0.72,0.18,0.8,0.29c1.38,1.93-1.04,4.66,0.38,6.58
			c0.56,0.77,1.35,0.98,2.22,0.58c2.65-1.22,2.19-6.79,1.04-9C445.38,181.11,442.64,180.79,440.33,181.15z"/>
	</g>
	<g class="st0">
		<path class="st5" d="M750.16,94.28c-3.79-19.37-34.68-45.8-51.6-27.58c-2.51-10.21-10.49-17.65-21.59-18.75
			c-10.39-1.03-18.94,5.15-22.7,14.03c-3.72-8.5-11.55-13.98-21.82-11.77c-9.53,2.05-15.26,10.58-14.39,19.56
			c-9.39-5.6-20.39-5.8-30.57-0.59c-11.33,5.79-19.15,18.06-18.95,30.82c0.22,13.25,9.74,23.24,21.34,28.16
			c10.22,4.33,22.39,4.36,29.39-4.27c0.48,1.24,1.07,2.42,1.3,3.2c1.31,4.45,0.77,9.24,1.59,13.81c-0.47,3.47-1.09,7.01-1.83,10.63
			c-1.39,2.95-2.8,5.89-4.07,8.9c-1.9,4.53-4.84,10.29-4.31,15.37c0,0.02,0.01,0.04,0.01,0.06c-2.98-0.42-6.2,2.27-7.57,5.81
			c-1.08,2.78-1.24,5.69-0.07,8.46c0.87,2.06,4.51,4.85,6.95,3.92c-3.09,20.96-1.63,41.07,15.63,56.1
			c13.04,11.35,34.12,12.13,49.93,7.45c8.16-2.42,15.78-6.97,21.2-13.58c7.14-8.71,8.73-20.87,8.53-31.76
			c-0.14-8.03-1.6-15.97-3.53-23.8c1.1-0.14,2.19-0.44,2.97-0.75c1.57-0.62,2.87-1.74,3.58-3.28c1.53-3.32,0.31-7.3-1.36-10.33
			c-1.4-2.54-3.86-5.75-6.94-6.22c-1.09-0.17-1.95,0.04-2.62,0.48c1.21-2.39-1.77-8.77-2.42-10.62c-0.75-2.12-2.19-8.41-4.27-11.05
			c-1.42-7.82-1.96-15.72-0.6-23.71c0.06-0.35,0.03-0.67-0.06-0.96c0.1-0.41,0.21-0.82,0.31-1.23c9.24,11.7,26.11,13.4,39.46,7.34
			C744.62,121.99,753.1,109.31,750.16,94.28z M616.17,169.95c-0.39,1.67-0.78,3.35-1.17,5.03c-0.01,0.02-0.03,0.04-0.04,0.05
			C615.12,173.34,615.57,171.64,616.17,169.95z M612.83,184.86c-0.65-0.87-1.44-1.62-2.22-2.37c-0.71-0.68-1.76,0.37-1.08,1.08
			c0.65,0.68,1.3,1.37,1.86,2.14c0.42,0.58,0.61,1.3,0.98,1.89c-0.25,1.34-0.5,2.68-0.72,4.01c-1.46-1.03-3.38-0.74-4.42-2.77
			c-0.84-1.64-0.38-3.9,0.13-5.55c0.51-1.63,1.53-3.43,2.99-4.37c1.37-0.88,2.59-0.21,3.59,0.78c-0.38,1.74-0.73,3.47-1.07,5.21
			C612.86,184.89,612.85,184.88,612.83,184.86z M701.09,170.86c2.09,0.74,3.66,3.25,4.65,5.08c1.15,2.12,2.07,4.76,1.28,7.15
			c-0.72,2.17-2.8,2.23-4.78,2.32c-0.33-1.26-0.68-2.51-1.03-3.76c0.06-0.65,0.19-1.29,0.42-1.94c0.54-1.55,1.76-2.53,2.47-3.94
			c0.49-0.97-0.51-2.06-1.5-1.5c-1.28,0.71-2.1,1.82-2.58,3.11c-0.45-1.58-0.9-3.16-1.35-4.73
			C699.08,171.43,699.78,170.4,701.09,170.86z M691.02,161.44c0.73,2.78,1.51,5.55,2.31,8.33c-1.36-0.59-2.74-0.48-3.82-1.74
			c-0.5-0.58-1.31-0.64-1.98-0.41c0.31-1.51-1.95-2.57-3.26-1.54c-0.8,0.63-1.67,1.14-2.55,1.65c-0.05-0.54-0.1-1.09-0.14-1.64
			c-0.13-2.16-2.9-2.44-3.65-0.49c-0.15,0.4-0.33,0.79-0.51,1.17c-0.26-0.85-0.46-1.73-0.54-2.63c0,0,0,0,0,0
			c-0.02-0.15-0.03-0.3-0.06-0.46c-0.3-1.93-3.44-1.45-3.37,0.46c0.06,1.72,0.45,3.29,0.94,4.86c0.1,0.65,0.2,1.3,0.32,1.96
			c0.06,0.35,0.3,0.58,0.59,0.71c0.02,0.04,0.03,0.09,0.04,0.13c0.45,1.29,2.15,1.8,3.08,0.82c0.68,0.6,1.83,0.72,2.62,0.01
			c0.35-0.32,0.73-0.6,1.11-0.87c0.35,0.47,0.89,0.81,1.48,0.77c1.52-0.1,2.84-0.43,4.18-0.96c1.61,1.28,3.89,2.01,5.77,1.18
			c0.21-0.09,0.36-0.24,0.49-0.41c3.52,12.11,7.18,24.21,8.17,36.51c0.99,12.42-0.77,26.21-9.86,35.41
			c-6.76,6.85-16.61,10.31-25.96,11.56c-20.51,2.75-41.26-5.54-49.06-25.72c-6.67-17.25-2.46-37.04,1.79-54.99
			c1.93-2.7,3.53-5.57,4.91-8.57c0.21-0.02,0.41-0.08,0.6-0.17c7.71-3.72,13.92-9.44,17.68-17.03c3.74,7.29,11.71,11.23,19.34,13.96
			c1.24,0.45,2.66-0.96,2.21-2.21c-0.89-2.46-2.16-4.72-3.34-7.03c5.08,2,10.32,3.2,15.93,2.82c1.02-0.07,1.78-0.78,1.82-1.82
			c0.05-1.29,0.14-2.55,0.18-3.8c4.04,3.07,8.45,5.66,11.7,9.64C690.42,161.19,690.72,161.37,691.02,161.44z M687.13,141.5
			c-2.6-1.47-5.7-2.35-8.97-2.85c0.72-3.8,0.66-7.78,0.5-11.61c-0.05-1.15-1.73-1.15-1.78,0c-0.17,3.79-0.33,7.59-0.43,11.38
			c-2.4-0.27-4.85-0.35-7.24-0.32c-0.45-2.12-0.43-4.35-0.66-6.5c-0.08-0.7-1.01-0.7-1.08,0c-0.24,2.19-0.31,4.41,0.28,6.54
			c-3.24,0.09-6.31,0.36-8.89,0.63c-0.53,0.05-1.07,0.12-1.6,0.18c-0.77-4.68-1.43-9.37-2.31-14.03c-0.13-0.7-1.29-0.54-1.25,0.17
			c0.29,4.72,0.9,9.45,2.15,14.02c-3.04,0.36-6.13,0.79-9.23,1.29c-0.23-0.9-0.21-2.08-0.29-2.83c-0.13-1.34-0.24-2.68-0.4-4.02
			c-0.11-0.9-1.32-0.91-1.41,0c-0.15,1.53,0.11,3.09,0.4,4.59c0.15,0.77,0.28,1.66,0.6,2.43c-2.68,0.45-5.36,0.97-8.03,1.54
			c-0.37-3.28-0.33-6.58-0.65-9.86c-0.09-0.94-1.37-0.94-1.46,0c-0.33,3.38-0.22,6.87,0.53,10.19c-3.6,0.8-7.16,1.72-10.59,2.77
			c0.42-3.44,0.65-6.88,0.58-10.32c8.09-7.08,19.96-10.2,30.11-12.58c6.11-1.43,12.35-2.31,18.63-2.45c2.58-0.06,5.17,0.1,7.71,0.58
			c1.7,0.32,3.39,1.33,5.1,1.57c-0.05,0.65-0.1,1.31-0.13,1.97C686.49,129.87,686.53,135.71,687.13,141.5z M670.32,146.59
			c-0.33-0.12-0.66-0.24-1-0.35c0.22-0.08,0.4-0.2,0.55-0.34C670.03,146.12,670.18,146.35,670.32,146.59z M658.77,158.44
			c-0.3-0.12-0.6-0.25-0.9-0.37c0.01-0.02,0.01-0.05,0.02-0.07c0.19-0.05,0.36-0.13,0.53-0.24
			C658.54,157.98,658.66,158.21,658.77,158.44z M634.34,155.59c-0.81,0.75-1.66,1.46-2.54,2.14c-0.03-0.06-0.06-0.12-0.1-0.17
			C632.62,156.96,633.5,156.31,634.34,155.59C634.33,155.59,634.34,155.59,634.34,155.59z M693.08,116.32
			c-0.04-0.05-0.08-0.09-0.12-0.14c1.29-3.53,3.09-6.9,4.69-10.3c0.1-0.22,0.16-0.45,0.18-0.67c1.83,1.68,3.21,3.57,4.65,5.68
			c1,1.47,3.13,0.54,2.81-1.18c-0.64-3.39-4.14-6.15-6.79-8.03c-2.04-1.45-4.4-3.04-6.78-1.96c-0.82,0.37-0.19,1.48,0.57,1.35
			c-0.46,0.08-0.55-0.04,0,0.33c0.39,0.26,0.79,0.47,1.2,0.68c0.58,0.31,1.15,0.67,1.7,1.05c-0.19,0.1-0.38,0.24-0.55,0.43
			c-3.8,4.17-5.76,9.18-6.69,14.47c-2.74-1.87-7.7-2.01-10.35-2.17c-6.78-0.41-13.69,0.68-20.31,2.05
			c-10.69,2.21-24.87,6.02-33.04,14.21c-0.01-1.26-0.05-2.51-0.16-3.77c-0.12-1.41-0.38-2.69-0.81-4.04
			c-0.19-0.62-0.8-2.27-1.14-3.13c0.19-0.26,0.27-0.58,0.15-0.96c-0.28-0.86-0.61-1.34-1.51-1.58c-0.77-0.21-1.38,0.15-1.83,0.74
			c-0.27,0.36-0.4,0.8-0.43,1.29c-6.54,9.01-19.56,7.3-28.68,3.17c-10.14-4.58-17.25-13.52-17.43-24.9
			c-0.18-10.82,7.13-20.56,16.11-25.87c10.1-5.98,22.3-4.87,31.24,2.63c1.33,1.12,4.03,0.1,3.26-1.9
			c-3.35-8.68,0.85-16.98,9.76-19.64c10.86-3.25,18.02,5.73,19.67,15.47c0.31,1.85,3.51,1.9,3.77,0
			c1.47-10.59,8.95-18.09,19.91-17.77c10.94,0.32,18.42,9.44,19.13,19.85c0.13,2,2.69,2.82,3.8,1.03
			c5.99-9.62,16.82-9.05,25.91-4.33c9.78,5.08,17.79,14.56,20.84,25.16C754.15,122.55,709.28,139.95,693.08,116.32z"/>
		<path class="st5" d="M647.06,200.86c-0.39,1.85,2.23,2.58,2.83,0.78c5.87-17.63,33.24-13.93,36.79,3.38
			c2.04,9.96-5.49,17.59-14.6,19.5c-9.31,1.95-17.58-2.14-23.82-8.74c-1.25-1.32-3.17,0.35-2.41,1.86c0.77,1.52,1.75,2.84,2.88,4.03
			c-0.07,0.01-0.14,0.03-0.2,0.04c9.72,6.79,22.1,10.07,32.58,3.5c0,0,0,0,0,0c6.7-4.22,10.73-11.93,9.47-20.28
			C687.43,184.07,651.83,177.95,647.06,200.86z"/>
		<path class="st5" d="M639.94,191.42c-0.97-1.33-2.18-2.8-2.19-4.53c0-1,0.71-1.8,1.61-2.31c0.99-0.57,2.2-0.59,3.31-0.24
			c1.55,0.49,1.87,2.02,2.67,3.24c1.02,1.54,3.84,1.1,3.71-1.01c-0.34-5.64-7.1-7.77-11.54-5.64c-2.14,1.03-3.47,3.12-3.67,5.45
			c-0.25,2.89,1.9,5.49,4.14,6.99C639.14,194.14,640.79,192.58,639.94,191.42z"/>
		<path class="st5" d="M678.98,184.01c0.66-3.42,2.44-6.5,6.08-4.64c1.11,0.56,2.23,1.61,2.6,2.61c0.24,0.66,0.21,0.8,0.04,1.36
			c-0.14,0.44-0.94,1.27-1.37,1.75c-1.07,1.19-0.06,3.37,1.64,2.83c2.85-0.91,4.17-3.45,3.73-6.34c-0.36-2.36-2.44-4.36-4.41-5.5
			c-2.26-1.31-4.9-1.59-7.29-0.53c-3.05,1.35-3.71,5.2-3.5,8.14C676.6,185.02,678.7,185.49,678.98,184.01z"/>
		<path class="st5" d="M634.42,176.43c1.06,0.08,2.13,0.2,3.19,0.43c0.82,0.17,1.66-0.34,2.03-1.03c1.29,0.26,2.57,0.56,3.85,0.98
			c0.55,0.18,1.01,0.07,1.36-0.2c0.17,0.14,0.34,0.29,0.5,0.43c0.96,0.87,2.54,0.36,2.82-0.76c0.85,0.24,1.77-0.59,1.3-1.65
			c-0.99-2.22-2.58-4.02-3.32-6.37c-0.63-2.01-3.77-1.16-3.16,0.87c0.21,0.69,0.39,1.39,0.58,2.08c-0.61-0.54-1.19-1.12-1.71-1.76
			c-1.38-1.69-3.7,0.71-2.38,2.38c0.14,0.18,0.28,0.37,0.41,0.56c-1.32-0.27-2.64-0.51-3.98-0.8c-0.94-0.2-1.92,0.51-2.17,1.35
			c-1.37-0.09-2.74-0.12-4.14-0.12c-1.18-0.01-1.79,1.03-1.65,1.99c-1.4-0.25-2.27,1.1-1.87,2.34c-1.03,0.51-1.95,1.17-2.31,2.13
			c-0.03,0.06-0.06,0.12-0.08,0.18c-0.01,0.02-0.02,0.04-0.02,0.06h0.02c-0.14,0.65,0.19,1.43,0.93,1.66
			c1.65,0.52,3.37-1.14,4.79-1.72c0.41-0.16,0.75-0.5,0.98-0.89c0.66,0.05,1.33,0.1,2.02,0.23
			C633.81,179.09,635.05,177.64,634.42,176.43z"/>
		<path class="st5" d="M663.43,238.34c-7.95,2.93-14.31-0.18-20.06-5.95c-0.75-0.75-1.74,0.19-1.37,1.05
			c3.03,6.89,16.4,13.03,22.6,6.91C665.42,239.55,664.6,237.91,663.43,238.34z"/>
		<path class="st5" d="M643.89,229.9c0.15-0.41,0.02-0.75-0.15-1.13c-0.2-0.44-0.8-0.75-1.26-0.72c-3.26,0.15-6.42,3.42-5.08,6.76
			c0.44,1.09,2.33,1.08,2.23-0.3c-0.16-2.16,1.22-3.29,3.24-3.58C643.39,230.84,643.73,230.34,643.89,229.9z"/>
	</g>
	<g class="st0">
		<path class="st5" d="M474.28,557.19c-5.38-11.58-16.15-18.78-28.61-20.53c-8.31-1.17-18.73-0.45-25.07,5.52
			c-0.57-4.99-1.87-9.98-5.01-13.93c-4.14-5.21-10.22-7.1-16.67-7.39c-12.19-0.54-26.82,5.93-28.18,18.68
			c-7.2-5.27-15.82-8.08-25.25-6.4c-10.89,1.94-17.05,9.74-21.26,19.29c-5.22,11.83-9.76,35.73,4.21,41.8
			c-11.79,5.31-24.57,18.6-14.49,30.2c5.91,6.81,14.97,8.94,23.58,7.51c3.59-0.59,7.12-2,9.97-4.14c-0.7,4.9-2.55,9.22-7.15,11.99
			c-1.64,0.99-0.57,3.73,1.32,3.14c3.86-1.22,2.99,3.37,5.35,4.74c-1.38,0.35-2.73,1.03-3.45,1.65c-2.02,1.73-2.85,4.34-2.74,6.94
			c0.19,4.49,4.27,8.59,8.3,6.69c0.4,8.93,2.35,17.74,6.38,25.81c5.2,10.41,17.66,19.93,29.69,15.12c0.84,0.79,1.85,1.43,2.8,1.95
			c4.59,2.5,10.36,2.97,15.48,2.55c4.83-0.39,9.98-1.95,13.3-5.66c1.26-1.41,2.12-3.27,2.52-5.24c13.05-4.01,18.52-19.6,20.39-31.83
			c0.48-3.14,0.62-6.24,0.53-9.32c2.13,1.12,5.14-0.27,6.32-2.19c1.54-2.52,1.1-6.02,0.35-8.71c-0.73-2.61-2.22-5.61-4.81-6.79
			c-1.58-0.72-3.03-0.4-4.23,0.44c-1.39-6.68-3.05-13.35-3.93-20.11c4.21,0.58,8.14,2.06,12,5.61c6.51,5.98,11.42,13.42,18.31,19.04
			c0.88,0.71,2.65,0.65,2.87-0.76c2.2-14.23-4.85-26.6-15.41-35.14c8.74-2.39,16.81-7.62,21.91-15.08
			C480.79,582.11,479.41,568.22,474.28,557.19z M441.19,641.11c1.62,0.99,2.46,3.36,2.94,5.07c0.55,1.96,0.74,4.17,0.05,6.12
			c-0.69,1.95-2.57,1.2-4.11,1.4c-0.07-1.07-0.18-2.14-0.3-3.21c0.28-0.11,0.51-0.36,0.53-0.76c0.05-1.04,0.19-2.08,0.68-3.02
			c0.48-0.93,1.45-1.37,2.05-2.18c0.39-0.53-0.13-1.34-0.75-1.31c-1.64,0.09-2.6,1.37-3.13,2.88c-0.26-1.59-0.54-3.17-0.85-4.75
			C439.18,640.76,440.15,640.48,441.19,641.11z M349.18,654.56c-0.14-0.25-0.27-0.51-0.41-0.76c-0.56-1.05-2.05-0.13-1.57,0.92
			l0.91,1.97c0.26,0.57,0.47,1.12,0.93,1.52c-0.01,0.74-0.01,1.48-0.01,2.22c-1.18,0.34-2.42,0.54-3.45-0.32
			c-1.18-0.99-1.61-2.7-1.65-4.17c-0.04-1.54,0.49-3.09,1.58-4.19c1.05-1.05,2.56-0.86,3.85-1.06
			C349.31,651.97,349.25,653.27,349.18,654.56z M349.54,647.51c-0.22-0.05-0.46-0.07-0.71-0.07c0.2-0.22,0.32-0.48,0.36-0.76
			c0.14-0.02,0.27-0.04,0.4-0.09C349.57,646.89,349.56,647.2,349.54,647.51z M436.41,661.21c-0.88,12.34-5.6,26.86-16.9,33.27
			c-0.1-2.27-0.84-4.46-2.32-6.1c-0.73-0.81-2.14-0.17-2.12,0.88c0.06,4.14,1.94,7.74-1.23,11.28c-2.67,2.98-7.21,3.93-11.01,4.27
			c-4.08,0.36-8.22-0.17-12.08-1.54c-1.75-0.62-5.83-3.05-5.51-5.39c0.1-0.71-0.84-1-1.09-0.3c-0.54,1.51-1.1,2.17-0.72,3.49
			c-6.28,0.2-11.61,0.32-17.09-4.08c-5.41-4.34-8.62-10.94-10.74-17.39c-2.72-8.28-3.07-16.64-2.79-25.13
			c0.75,1.12,1.62,2.17,2.54,3.16c1.29,1.4,3.24-0.38,2.49-1.92c-6.77-13.99-1.08-31.14,4.23-44.64c0.11-0.28,0.09-0.53-0.01-0.74
			c3.57-1.53,7.19-2.97,10.87-4.27c0.16,0.1,0.34,0.19,0.56,0.25c8.28,2.2,16.06,5.74,24.1,8.62c8.12,2.91,16.2,4.06,24.8,3.81
			c2.67-0.08,5.19-0.17,7.6-0.1C431.27,632.93,437.45,646.65,436.41,661.21z M358.39,611.95c0.28-0.13,0.56-0.26,0.84-0.39
			c-0.19,0.34-0.36,0.7-0.55,1.04c-0.01-0.01-0.02-0.03-0.04-0.04C358.61,612.33,358.52,612.12,358.39,611.95z M420.74,591.76
			c0.27,1.19,0.38,2.41,0.44,3.63c-1.71-0.17-3.43-0.28-5.15-0.34c0.07-3.23,0.12-6.45-0.04-9.68c-0.01-0.11-0.04-0.21-0.07-0.3
			c1.02,0.14,2.04,0.3,3.05,0.51c2.5,0.52,4.63,1.69,6.93,2.67c-0.01,1.28,0.18,2.59,0.26,3.78c0.08,1.38,0.24,2.76,0.48,4.12
			c-1.3-0.24-2.62-0.43-3.94-0.59c0-1.42-0.11-2.79-0.65-4.16C421.72,590.61,420.55,590.89,420.74,591.76z M470.44,590.8
			c-5.12,8.08-13.83,11.65-22.63,14.06c-4.86-3.27-10.25-5.79-15.7-7.4c-0.81-0.24-1.63-0.46-2.45-0.66
			c-0.22-1.89-0.35-3.78-0.4-5.69c-0.06-1.95,0.38-4.05-0.55-5.82c-0.32-0.61-1.13-0.77-1.7-0.48c-3.81-3.24-10.55-3.62-15.1-3.91
			c-7.43-0.47-14.93,0.36-22.31,1.16c-12.36,1.35-25.65,5.96-36.6,11.82c-0.47,0.25-0.91,0.91-0.84,1.47
			c-0.03-0.24,0,0.79,0.17,0.93c0.11,0.09,0.22,0.18,0.33,0.27c0.64,0.52,1.3,0.62,2.06,0.27c5.03-2.36,10.31-4.21,15.56-6.02
			c5.93-2.04,12.15-4.18,18.41-4.86c6.57-0.71,13.14-1.36,19.75-1.36c2.05,0,4.09,0.11,6.12,0.33c-0.09,0.12-0.16,0.27-0.17,0.46
			c-0.17,3.22-0.11,6.43-0.04,9.64c-2.18-0.02-4.36,0.03-6.54,0.15c-0.15-1.76-0.2-3.52-0.42-5.28c-0.11-0.85-1.22-0.85-1.33,0
			c-0.23,1.81-0.2,3.6-0.01,5.38c-2.16,0.16-4.32,0.38-6.45,0.66c-0.02-1.91-0.15-3.8-0.64-5.67c-0.2-0.78-1.53-0.64-1.43,0.19
			c0.23,1.9,0.36,3.79,0.45,5.69c-1.7,0.24-3.38,0.51-5.04,0.8c-0.84,0.15-1.68,0.31-2.51,0.48c-0.12-2.98-0.53-5.92-1.08-8.86
			c-0.15-0.79-1.49-0.61-1.4,0.19c0.3,3,0.76,5.98,1.02,8.98c-2.67,0.58-5.32,1.25-7.94,2.02c-0.1-1.98-0.38-3.95-0.54-5.92
			c-0.09-1.09-1.65-1.11-1.71,0c-0.12,2.18,0.32,4.3,0.49,6.46c-2.1,0.65-4.19,1.36-6.26,2.12c-0.36-2.97-0.93-5.91-1.37-8.87
			c-0.2-1.35-2.32-0.8-2.07,0.57c0.56,2.97,1.1,5.96,1.78,8.91c-2.49,0.96-4.95,1.99-7.39,3.09c0.02-2.03-0.36-4.05-0.35-6.08
			c0-1.17-1.86-1.17-1.82,0c0.09,2.26,0.57,4.47,0.79,6.72c-2.77,1.29-5.5,2.67-8.19,4.12c-0.14-5.07-0.82-17.34-4.18-15.48
			c-0.06,0.03-0.1,0.13-0.05,0.19c1.2,1.65,0.68,6.58,0.75,8.53c0.16,4.85,0.09,9.71-0.03,14.57c-4.75,12.83-26.8,12.74-34.43,2.78
			c-4.01-5.23-1.24-11.82,2.52-16.27c4.31-5.1,10.6-8.46,17.12-9.62c2.07-0.37,1.5-3.52-0.48-3.56c-18.52-0.34-12.86-25.87-8.6-36.7
			c3.1-7.88,7.45-14.44,15.56-17.57c13.74-5.32,27.46,3.28,35.52,14.08c0.03,0.05,0.07,0.08,0.11,0.12c-1.66,1.41-2.6,3.5-2.39,5.74
			c0.1,1.06,1.8,1.49,2,0.27c0.36-2.21,1.37-3.81,3.49-4.69c1.8-0.75,4.06-0.34,5.69-1.39c0.71-0.46,0.74-1.49,0-1.94
			c-1.56-0.95-3.79-0.49-5.66,0.25c-0.04-0.06-0.07-0.13-0.12-0.19c-2.45-3.28-5.25-6.3-8.35-8.86
			c1.62-12.05,14.97-16.79,26.1-16.64c13.28,0.18,17.81,10.74,18.38,22.46c0.09,1.77,2.48,2.57,3.42,0.93
			c4.92-8.65,17.24-8.86,25.9-7.45c11.06,1.79,19.56,8.65,24.53,18.58C476.13,568.98,476.48,581.26,470.44,590.8z"/>
		<path class="st5" d="M397.42,648.9c-1.24,0.85-0.91,3.12,0.82,3.02c4.55-0.25,9.17-1.35,12.29,3.04c3.16,4.44-0.74,9.78-4.9,11.51
			c-6.98,2.9-17.28,0.25-18.66-8.02c-0.24-1.42-2.25-0.94-2.35,0.32c-0.34,3.9,1.18,6.81,3.66,8.81c-0.07,0.02-0.15,0.05-0.22,0.08
			c6.99,4.58,15.19,3.27,22.8,0.06c4.32-3.48,5.68-9.73,2.93-14.66C411.03,648.1,402.17,645.65,397.42,648.9z"/>
		<path class="st5" d="M370.92,644.93c-4.66,0.63-6.56,5.59-4.43,9.49c0.83,1.51,3,0.44,2.67-1.12c-0.51-2.37-0.17-4.22,2.45-4.75
			c2.11-0.42,4.15,0.93,4.42,3.05c0.3,2.32,3.88,2.48,3.75,0C379.54,646.88,375.32,644.34,370.92,644.93z"/>
		<path class="st5" d="M425.52,642.42c-4.32-0.92-7.45,2.55-7.09,6.75c0.11,1.32,2.28,1.84,2.49,0.34c0.33-2.38,1.29-4.4,4.02-3.66
			c2.81,0.76,3.13,3.12,3.87,5.46c0.48,1.54,2.83,1.67,3.24,0C433.04,647.31,429.22,643.2,425.52,642.42z"/>
		<path class="st5" d="M381.68,639.57c-1.12-11.14-20.12-8.6-22.26,0.7c-0.23,0.98,0.47,2.09,1.55,2.04
			c6.54-0.28,13.08-4.46,19.27-0.78c0.84,0.5,1.79-0.54,1.35-1.29C381.67,640.06,381.71,639.83,381.68,639.57z"/>
		<path class="st5" d="M415.07,630.94c-2.74,1.02-5.81,3.67-5.34,6.19c-0.47,1.2-0.55,2.35,0.51,3.43c0.49,0.5,1.5,0.59,1.97,0
			c2.29-2.85,5.78-3.65,9.29-3.78c1.64-0.06,3.27,0.2,4.86,0.6c1.36,0.34,2.42,1.36,3.76,1.59c0.81,0.14,1.67-0.5,1.4-1.4
			c-0.05-0.16-0.11-0.3-0.18-0.45c-0.03-0.29-0.16-0.59-0.44-0.85c-0.08-0.08-0.17-0.15-0.25-0.22c0.09-0.25,0.1-0.52,0-0.81
			C428.49,629.39,419.97,629.1,415.07,630.94z"/>
		<path class="st5" d="M403.29,682.79c-3.81,1.98-6.82,3.15-11.02,1.31c-0.98-0.43-2.25,0.83-1.26,1.63
			c3.74,3.03,10.67,3.07,13.97-0.75C406.03,683.79,404.74,682.04,403.29,682.79z"/>
	</g>
	<g class="st0">
		<path class="st5" d="M119.42,633.52c-2.37-0.08-4.99,0.81-6.49,2.71c-2.07,2.63-1.55,5.89-0.09,8.67c0.85,1.62,3.44,0.5,2.93-1.23
			c-1.03-3.46-0.45-6.38,3.65-6.37c1.4,0.01,2.89,0.49,3.93,1.43c1.42,1.27,0.59,2.94,1.44,4.42c0.37,0.66,1.39,1.01,2.05,0.54
			c2.43-1.75,1.16-5.28-0.38-7.21C124.82,634.44,121.92,633.6,119.42,633.52z"/>
		<path class="st5" d="M178.67,631.93c-2.52-0.3-5.71,0.19-7.45,2.21c-2.17,2.52-0.89,6.46,1.65,8.23c0.93,0.65,2.2-0.42,1.88-1.45
			c-0.34-1.12-0.96-2.09-1.19-3.26c-0.11-0.56,0.11-0.94,0.43-1.26c0.33-0.34,0.97-0.58,1.68-0.75c0.87-0.21,1.81-0.2,2.76-0.12
			c1.63,0.13,3.33,0.76,4.3,1.89c0.16,0.19,0.28,0.73,0.21,1.11c-0.25,1.22-1.39,1.95-1.33,3.29c0.04,0.74,0.66,1.59,1.5,1.5
			c3.3-0.36,4.2-5.16,2.81-7.64C184.52,633.17,181.32,632.25,178.67,631.93z"/>
		<path class="st5" d="M127.92,615.21c-1.2-0.75-2.64,0.73-1.92,1.92c0.32,0.53,0.63,1.06,0.95,1.59c-1.35-0.85-2.81-1.56-4.41-2.09
			c-1.38-0.45-2.66,1.52-1.54,2.51c-1.37-0.46-2.73-0.92-4.11-1.36c-1.73-0.55-2.48,1.82-1.16,2.76c0.09,0.06,0.17,0.13,0.25,0.19
			c-2.07-0.37-4.15-0.67-6.27-0.72c-1.52-0.04-1.84,1.76-0.93,2.6c-1.15,0.17-2.29,0.43-3.43,0.82c-1.29,0.45-1.59,2.63,0,2.91
			c0.37,0.07,0.72,0.16,1.07,0.26c-0.35,0.22-0.68,0.46-0.98,0.75c-0.3,0.3-0.43,0.77-0.31,1.17c0.01,0.02,0.01,0.04,0.02,0.07
			c0.17,0.56,0.6,0.82,1.05,0.84c0.06,0.46,0.57,0.88,1.02,0.56c4.98-3.64,11.59-5.22,17.84-4.49c1.5,0.31,2.98,0.7,4.59,0.97
			c1.71,0.55,3.35,1.3,4.86,2.25c0.98,0.61,1.86-0.39,1.73-1.33C135.52,622.05,132.45,618.03,127.92,615.21z"/>
		<path class="st5" d="M237.93,572.69c-2.67-19.07-17.55-38.38-38.04-31.84c0.58-13.34-7.06-25.11-20.86-28.07
			c-13.04-2.79-24.73,4.5-29.26,16.26c-13.34-18.91-37.75-22.96-58.47-12.7c-10.88,5.39-19.18,14.21-23.21,25.7
			c-3.06,8.73-2.55,18.57,3.34,25.33c-17.09,0.46-31.11,18.26-29.63,35.97c0.88,10.51,7.99,19.58,16.73,24.98
			c6.67,4.12,17.03,6.28,24.26,2.21c-0.38,1.37-0.59,2.78-0.71,4.07c-0.32,3.56,0.19,8.14,2.83,10.81c1.97,1.99,4.99,1.64,6.96-0.02
			c-0.35,1.87-0.67,3.74-0.94,5.63c-0.77,5.48-1.29,11.19-1.19,16.85c-1.79,3.92-0.72,8.91-1.48,13.04
			c-0.21,1.11,0.71,1.81,1.7,1.52c1.4,9.13,5.24,17.19,11.54,24.08c1.01,1.1,2.69-0.06,2.38-1.39c-0.02-0.41-0.04-0.83-0.06-1.24
			c2.47,2.01,4.93,4.03,7.59,5.81c4.79,3.2,10.42,5.34,15.57,7.89c1.44,0.71,2.74-0.7,2.1-2.1c-0.11-0.25-0.24-0.49-0.37-0.74
			c2.87,1.02,5.49,2.89,8.24,4.12c0.9,0.4,2.05,0.13,2.32-0.94c0.01-0.05,0.62-2.75,0.68-2.74c1.56,0.24,2.91,1.36,4.24,2.1
			c1.68,0.94,3.74,0.41,5.49,0.05c5.45-1.14,10.81-3.38,15.38-6.61c0,0.01,0,0.02,0,0.03c-0.02,0.94,0.93,1.62,1.82,1.38
			c10.25-2.72,17.66-9.42,23.29-18.01c0.37,0.66,0.75,1.32,1.16,1.96c0.68,1.06,2.16,1.06,2.84,0c5.18-8.12,6.79-17.48,6.83-26.93
			c0.01,0.02,0.03,0.03,0.05,0.04c0.82,0.87,2.61,0.52,2.83-0.75c1.83-10.43-1.58-19.05-4.47-28.91c-0.06-0.19-0.14-0.35-0.23-0.49
			c1.81,0.64,4.01,0.14,5.23-1.63c2.17-3.15,1.99-7.77,1.51-11.38c-0.29-2.19-0.81-4.69-1.84-6.85
			c11.25-1.23,21.37-6.23,27.83-15.84C237.84,594.52,239.38,583.05,237.93,572.69z M93.95,635.28c-0.09-0.29-0.17-0.59-0.28-0.87
			c-0.58-1.55-1.7-3.87-3.47-4.22c-0.65-0.13-1.43,0.43-1.16,1.16c0.53,1.47,1.94,2.46,2.71,3.87c0.74,1.36,1.1,2.93,1.27,4.48
			c-0.18,0.86-0.37,1.72-0.55,2.58c-1.92,0.74-4.19,2.93-5.78,0.55c-1.56-2.34-1.64-5.54-1.46-8.24c0.17-2.52,0.92-5.91,3.11-7.49
			c2.3-1.65,4.93,0,7.04,1.62C94.91,630.91,94.43,633.1,93.95,635.28z M153.75,687.97c-1.16,0.12-1.9,1.21-1.32,2.31
			c0.24,0.46,0.49,0.91,0.73,1.36c-0.91-0.37-1.82-0.75-2.77-1.03c-0.49-0.15-1.02,0.03-1.38,0.36c-0.07,0-0.14,0.01-0.21,0.01
			c-0.23-0.06-0.46-0.12-0.68-0.17c-0.83-0.2-1.74-0.47-2.6-0.45c-0.31,0.01-0.6,0.2-0.79,0.46c-0.01,0-0.01-0.01-0.02-0.01
			c-0.61-0.38-1.56-0.17-1.89,0.5c-0.3,0.6-0.64,1.16-0.98,1.72c-0.55-0.4-1.1-0.79-1.63-1.21c-0.56-0.44-1.33-0.56-1.88,0
			c-0.76,0.77-1.42,1.62-2.09,2.45c-0.08-0.2-0.16-0.4-0.25-0.6c-0.31-0.77-1.08-1.18-1.86-0.76c-0.94,0.5-1.9,0.96-2.87,1.41
			c0.28-1.25,0.62-2.47,1.04-3.71c0.28-0.82-0.46-1.7-1.29-1.69c-0.49,0.01-0.98,0.02-1.47,0.04c0.58-0.76,1.07-1.62,1.49-2.57
			c3.7-0.64,7.31-1.83,10.53-3.74c1.36-0.81,3.32-2.36,4.71-4.17c1.3,4.01,5.05,6.18,9.33,7.05c0.01,0.01,0.01,0.02,0.01,0.03
			c0.48,0.71,0.96,1.42,1.46,2.11C155.96,687.76,154.85,687.85,153.75,687.97z M196.54,658.27c-0.45,6.06-2.66,11.45-5.16,16.86
			c-0.2,0.29-0.41,0.58-0.62,0.86c-3.95-7.93-13.08-11.98-21.84-11.68c0.45-0.85,0.85-1.73,1.16-2.67
			c2.97-8.87-2.31-18.76-9.39-23.95c-8.65-6.35-19.05-2.91-25.12,5.11c-0.99,1.31,1.19,2.96,2.27,1.75c6.26-7,14.71-9.35,22.35-2.88
			c6.04,5.12,9.32,14.43,5.25,21.67c-2.53,4.51-7.78,6.87-12.61,7.84c-6.78,1.35-12.43-2.76-18.37-5.18
			c-5.18-2.11-10.65-3.91-15.96-1.37c-5.68,2.72-7.98,10.64-14.42,11.07c-0.97,0.06-1.54,1.2-0.81,1.94
			c0.07,0.07,0.13,0.12,0.2,0.18c0.02,0.07,0.04,0.15,0.07,0.22c0.2,0.46,0.43,0.88,0.68,1.3c-3.69-0.38-5.49-3.82-6.71-7.29
			c0.08,0,0.17-0.01,0.25-0.01c0.59,0,1.02-0.48,1.05-1.05c0.23-4.44-0.91-8.68-1.23-13.08c-0.02-0.32-0.01-0.98,0.03-1.84
			c0.29-2.26,0.61-4.51,0.94-6.77c0.35-2.42,0.87-4.95,1.16-7.48c0.18-0.33,0.36-0.52,0.56-0.52c0.65,0,1.25-0.68,1.02-1.34
			c-3.95-11.17,3.01-22.73,3.77-34c5.11,0.68,10.26,1.11,15.4,0.54c1.12-0.12,1.94-1.46,0.98-2.36c-0.62-0.59-1.09-1.23-1.5-1.9
			c11.94,6.28,23.45,13.9,37.62,11.66c1.64-0.26,1.19-2.4,0-2.89c-7.55-3.07-6.53-12.35-1.92-17.55c2.71,4.68,6.87,8.29,12.42,9.13
			c1.02,0.15,2.23-0.64,1.82-1.82c-0.47-1.35-0.45-2.71-0.42-4.08c5.54,3.9,10.62,8.06,17.49,9.17c0.78,4.06,1.73,8.12,2.81,12.21
			c0.11,0.43,0.23,0.86,0.35,1.3c-0.02,0-0.04,0-0.06,0.01c-0.53,0.09-1.06,0.11-1.59,0.1c1.21-0.87,0.89-3.01-0.81-2.97
			c-0.9,0.02-1.78,0.09-2.64,0.2c0.8-1.15-0.35-2.64-1.73-2.37c-1.28,0.24-2.49,0.61-3.68,1.05c-0.35-0.32-0.84-0.51-1.39-0.42
			c-2.99,0.47-5.58,1.72-7.96,3.33c0.22-0.37,0.44-0.73,0.66-1.1c0.76-1.26-0.81-3.03-2.11-2.11c-0.8,0.57-1.56,1.17-2.3,1.8
			c-0.14-1.13-1.6-2.05-2.49-0.95c-0.08,0.1-0.15,0.2-0.23,0.3c0,0,0,0,0,0c0,0,0,0.01-0.01,0.01c-2.09,2.6-3.81,5.34-5.14,8.42
			c-0.28,0.66-0.12,1.34,0.27,1.81c-0.51,0.42-0.83,0.85-0.73,1.27c0.03,0.12,0.06,0.24,0.08,0.35c0.09,0.4,0.37,0.69,0.7,0.86
			c0.13,0.07,0.27,0.13,0.42,0.13c0.2,0.03,0.4,0.03,0.6-0.01c4.18-0.91,7.53-4.04,11.6-5.29c6.19-1.91,13.69-1.26,18.47,3.22
			c0.63,0.59,1.55,0.4,2.07-0.12c1.73,6.48,3.37,12.98,4.42,19.59C196.77,650.4,196.83,654.34,196.54,658.27z M175.21,580.7
			c-0.53,2.21-0.59,4.47-0.98,6.7c-1.02-0.38-2.02-0.72-2.99-1.01c-2.03-0.6-4.11-1.05-6.21-1.39c0.02-0.06,0.04-0.12,0.04-0.2
			c0.04-2.06,0.21-4.16,0.01-6.21c-0.07-0.78-1.13-0.78-1.21,0c-0.2,2.05-0.03,4.15,0.01,6.21c0,0.01,0,0.01,0,0.02
			c-2.46-0.34-4.95-0.52-7.45-0.57c-0.27-3.6-0.11-7.13,0.09-10.74c0.03-0.59-0.92-0.72-1.04-0.14c-0.74,3.58-0.67,7.26-0.19,10.87
			c-3.73-0.02-7.46,0.22-11.1,0.62c0.3-0.02,0.58-0.23,0.6-0.62c0.1-2.69,0.25-5.49-0.58-8.08c-0.27-0.84-1.39-0.47-1.28,0.35
			c0.36,2.57,0.45,5.14,0.55,7.73c0.02,0.42,0.33,0.63,0.64,0.63c-0.29,0.03-0.58,0.06-0.87,0.1c-4.02,0.47-8.02,1.2-11.96,2.17
			c0-0.03,0.02-0.05,0.02-0.08c0.05-3.69-0.44-7.33-0.99-10.97c-0.17-1.13-1.92-0.66-1.72,0.47c0.61,3.47,1.14,6.96,1.27,10.49
			c0.01,0.16,0.06,0.29,0.14,0.39c-4.23,1.11-8.37,2.51-12.38,4.23c-0.42-2.95-0.91-5.87-1.65-8.76c-0.22-0.85-1.4-0.47-1.28,0.35
			c0.43,3.01,0.93,6,1.68,8.95c-0.27,0.12-0.55,0.23-0.82,0.36c-2.31,1.07-4.75,2.35-7.06,3.85c-0.01-3.83-0.93-7.48-1.69-11.21
			c-0.12-0.57-1.09-0.45-1.02,0.14c0.41,3.79,1.54,7.47,1.72,11.29c0.01,0.15,0.07,0.27,0.16,0.35c-2.2,1.51-4.26,3.22-5.93,5.2
			c-0.54-6.42-1.77-12.84-0.68-19.25c0.03-0.18,0.03-0.35,0.01-0.51c14.15-3.62,27.66-8.22,42.38-9.46
			c14.89-1.25,30.93,0.55,41.2,12.37c0.07,3.13,0.27,6.21,0.59,9.26c-2.48-3.08-6.21-5.28-9.94-6.81c0.52-2.23,0.73-4.54,1.04-6.8
			C176.43,580.29,175.39,579.95,175.21,580.7z M202.25,634.58c-0.91,2.66-2.26,0.8-4.13,0.4c-0.01,0-0.02,0-0.02,0
			c-0.41-1.73-0.85-3.46-1.3-5.18c0.03-0.78,0.17-1.56,0.43-2.37c0.53-1.69,1.86-2.93,2.38-4.6c0.19-0.6-0.53-1.15-1.06-0.82
			c-1.34,0.85-2.26,2.28-2.78,3.89c-0.6-2.23-1.21-4.46-1.81-6.69c1.68-1.54,3.86-2.92,5.78-1.07c1.99,1.92,2.63,5.26,3.02,7.87
			C203.19,628.8,203.17,631.89,202.25,634.58z M229.4,600.37c-5.73,9.7-16.2,14.42-27.1,15.36c-0.22,0.02-0.41,0.08-0.58,0.15
			c-0.2-0.19-0.41-0.36-0.64-0.53c-2.75-2.04-5.63-0.96-7.89,0.98c-2.89-11.01-4.8-21.8-4.8-33.23c0-1.45-1.34-2.04-2.42-1.76
			c-9.92-11.09-26.15-13.05-40.4-12.24c-8.66,0.49-17.27,2.15-25.67,4.23c-7.05,1.75-14.46,3.8-21.05,6.9
			c-0.65,0.3-0.8,0.91-0.64,1.45c-0.07,0.13-0.14,0.28-0.18,0.45c-1.2,5.3-0.82,10.66-0.32,16.03c0.67,7.11,0.54,13.94-0.55,21.01
			c-0.32,2.08-0.71,4.15-1.11,6.21c-2.72-1.83-6.11-2.77-9.06-1.09c-0.74,0.42-1.37,0.97-1.92,1.61c-3.92,1.68-7.35,3.18-11.74,3.19
			c-4.6,0.01-9.02-1.71-12.93-3.99c-7.84-4.56-13.79-12.69-14.94-21.75c-2.45-19.41,16.92-38.25,35.96-30.44
			c0.18,1.41,0.63,2.79,1.26,4.05c0.62,1.24,2.61,0.37,2.22-0.93c-0.54-1.81-0.77-3.68-0.41-5.56c0.42-2.18,2.12-3.03,3.16-4.78
			c0.46-0.77-0.12-1.99-1.09-1.9c-2.67,0.23-4.19,2.98-4.87,5.32c-0.01,0.04-0.02,0.08-0.03,0.12c-2.08-0.81-4.15-1.34-6.19-1.62
			c-6.85-7.27-6.71-17.4-3.2-26.6c3.88-10.17,12.27-17.34,21.81-22.07c19.82-9.84,43.42-3.89,54.67,15.44
			c0.79,1.36,3.04,1.15,3.41-0.45c2.85-12.19,13.31-19.87,25.86-17.54c12.65,2.35,19.53,13.98,18.02,26.25
			c-1.61-0.8-3.38-1.29-5.03-1.44c-1.44-0.13-1.72,2.18-0.34,2.5c1.8,0.42,3.45,1.04,4.96,2.11c1.67,1.18,2.3,2.97,3.23,4.69
			c0.64,1.17,2.6,0.67,2.54-0.69c-0.09-1.9-0.9-3.5-2.11-4.8c18.89-7.1,31.97,10.1,34.85,27.36
			C235.74,581.84,234.32,592.05,229.4,600.37z"/>
		<path class="st5" d="M147.5,684.34c-0.88-0.12-1.97,0.77-2.84,1c-0.93,0.25-1.77,0.15-2.43-0.58c-0.37-0.41-1.22-0.11-1.16,0.48
			c0.19,1.61,1.55,2.22,3.04,2.25c1.29,0.02,3.9-0.56,4.26-2.01C148.53,684.86,148.09,684.42,147.5,684.34z"/>
	</g>
</g>
</svg>
